# Blender v2.92.0 OBJ File: ''
# www.blender.org
mtllib box.mtl
o Shape_Box
v 0.015000 0.040000 0.035000
v -0.015000 0.040000 0.035000
v -0.015000 0.040000 -0.035000
v 0.015000 0.040000 -0.035000
v 0.015000 -0.040000 0.035000
v -0.015000 -0.040000 0.035000
v -0.015000 -0.040000 -0.035000
v 0.015000 -0.040000 -0.035000
vt 1.000000 0.000000
vt 0.000000 0.000000
vt 0.000000 1.000000
vt 1.000000 1.000000
vt 0.000000 0.000000
vt 0.000000 1.000000
vt 1.000000 0.000000
vt 0.000000 0.000000
vt 0.000000 1.000000
vt 1.000000 1.000000
vt 1.000000 0.000000
vt 0.000000 0.000000
vt 1.000000 1.000000
vt 1.000000 0.000000
vt 0.000000 0.000000
vt 0.000000 1.000000
vt 1.000000 1.000000
vt 1.000000 0.000000
vt 0.000000 1.000000
vt 1.000000 1.000000
vn 0.0000 -1.0000 0.0000
vn -1.0000 -0.0000 0.0000
vn 0.0000 0.0000 1.0000
vn 1.0000 0.0000 0.0000
vn 0.0000 0.0000 -1.0000
vn 0.0000 1.0000 0.0000
g Shape_Box_Shape_Box_None
usemtl None
s off
f 1/1/1 2/2/1 3/3/1 4/4/1
f 5/5/2 1/6/2 4/4/2 8/7/2
f 8/8/3 4/9/3 3/10/3 7/11/3
f 7/12/4 3/3/4 2/13/4 6/14/4
f 6/15/5 2/16/5 1/17/5 5/18/5
f 8/7/6 7/12/6 6/19/6 5/20/6
o Shape_Box.001_Shape_Box
v 0.015000 0.040000 0.035000
v -0.015000 0.040000 0.035000
v -0.015000 0.040000 -0.035000
v 0.015000 0.040000 -0.035000
v 0.015000 -0.040000 0.035000
v -0.015000 -0.040000 0.035000
v -0.015000 -0.040000 -0.035000
v 0.015000 -0.040000 -0.035000
vt 1.000000 0.000000
vt 0.000000 0.000000
vt 0.000000 1.000000
vt 1.000000 1.000000
vt 0.000000 0.000000
vt 0.000000 1.000000
vt 1.000000 0.000000
vt 0.000000 0.000000
vt 0.000000 1.000000
vt 1.000000 1.000000
vt 1.000000 0.000000
vt 0.000000 0.000000
vt 1.000000 1.000000
vt 1.000000 0.000000
vt 0.000000 0.000000
vt 0.000000 1.000000
vt 1.000000 1.000000
vt 1.000000 0.000000
vt 0.000000 1.000000
vt 1.000000 1.000000
vn 0.0000 -1.0000 0.0000
vn -1.0000 -0.0000 0.0000
vn 0.0000 0.0000 1.0000
vn 1.0000 0.0000 0.0000
vn 0.0000 0.0000 -1.0000
vn 0.0000 1.0000 0.0000
g Shape_Box.001_Shape_Box_None
usemtl None
s off
f 9/21/7 10/22/7 11/23/7 12/24/7
f 13/25/8 9/26/8 12/24/8 16/27/8
f 16/28/9 12/29/9 11/30/9 15/31/9
f 15/32/10 11/23/10 10/33/10 14/34/10
f 14/35/11 10/36/11 9/37/11 13/38/11
f 16/27/12 15/32/12 14/39/12 13/40/12
o Shape_Box.002_Shape_Box
v 0.015000 0.040000 0.035000
v -0.015000 0.040000 0.035000
v -0.015000 0.040000 -0.035000
v 0.015000 0.040000 -0.035000
v 0.015000 -0.040000 0.035000
v -0.015000 -0.040000 0.035000
v -0.015000 -0.040000 -0.035000
v 0.015000 -0.040000 -0.035000
vt 1.000000 0.000000
vt 0.000000 0.000000
vt 0.000000 1.000000
vt 1.000000 1.000000
vt 0.000000 0.000000
vt 0.000000 1.000000
vt 1.000000 0.000000
vt 0.000000 0.000000
vt 0.000000 1.000000
vt 1.000000 1.000000
vt 1.000000 0.000000
vt 0.000000 0.000000
vt 1.000000 1.000000
vt 1.000000 0.000000
vt 0.000000 0.000000
vt 0.000000 1.000000
vt 1.000000 1.000000
vt 1.000000 0.000000
vt 0.000000 1.000000
vt 1.000000 1.000000
vn 0.0000 -1.0000 0.0000
vn -1.0000 -0.0000 0.0000
vn 0.0000 0.0000 1.0000
vn 1.0000 0.0000 0.0000
vn 0.0000 0.0000 -1.0000
vn 0.0000 1.0000 0.0000
g Shape_Box.002_Shape_Box_None
usemtl None
s off
f 17/41/13 18/42/13 19/43/13 20/44/13
f 21/45/14 17/46/14 20/44/14 24/47/14
f 24/48/15 20/49/15 19/50/15 23/51/15
f 23/52/16 19/43/16 18/53/16 22/54/16
f 22/55/17 18/56/17 17/57/17 21/58/17
f 24/47/18 23/52/18 22/59/18 21/60/18
