# Blender v2.92.0 OBJ File: ''
# www.blender.org
mtllib hand_r.mtl
o Shape_IndexedFaceSet_Shape_IndexedFaceSet.161
v 0.015000 0.000000 0.160000
v 0.015000 0.010000 0.160000
v -0.015000 0.000000 0.160000
v -0.015000 0.010000 0.160000
v -0.015000 0.010000 0.090000
v 0.015000 0.000000 0.090000
v 0.015000 0.010000 0.090000
v -0.015000 0.000000 0.090000
vt 0.000000 0.000000
vt 1.000000 0.000000
vt 1.000000 0.000000
vt 0.000000 0.000000
vt 0.000000 1.000000
vt 1.000000 1.000000
vt 1.000000 1.000000
vt 0.000000 1.000000
vn -1.0000 0.0000 -0.0000
vn -0.0000 1.0000 -0.0000
vn 1.0000 0.0000 0.0000
vn 0.0000 -1.0000 0.0000
vn 0.0000 0.0000 1.0000
vn -0.0000 0.0000 -1.0000
g Shape_IndexedFaceSet_Shape_IndexedFaceSet.161_None
usemtl None
s off
f 8/1/1 3/2/1 4/3/1
f 5/4/1 8/1/1 4/3/1
f 7/5/2 5/4/2 4/3/2
f 2/6/2 7/5/2 4/3/2
f 7/5/3 2/6/3 1/7/3
f 6/8/3 7/5/3 1/7/3
f 1/7/4 3/2/4 8/1/4
f 6/8/4 1/7/4 8/1/4
f 3/2/5 1/7/5 2/6/5
f 4/3/5 3/2/5 2/6/5
f 8/1/6 5/4/6 7/5/6
f 8/1/6 7/5/6 6/8/6
