# Blender v2.92.0 OBJ File: ''
# www.blender.org
mtllib j2.mtl
o Shape_IndexedFaceSet_Shape_IndexedFaceSet.150
v 0.075000 -0.046961 -0.030000
v -0.075000 -0.046961 -0.030000
v 0.075000 -0.025000 -0.051962
v -0.075000 -0.025000 -0.051961
v 0.075000 0.005000 -0.060000
v -0.075000 0.005000 -0.060000
v -0.075000 0.035000 -0.051961
v 0.075000 0.035000 -0.051961
v -0.075000 0.056962 -0.030000
v 0.075000 0.056962 -0.030000
v -0.075000 0.065000 0.000000
v 0.075000 0.065000 -0.000000
v -0.075000 0.056961 0.030000
v 0.075000 0.056961 0.030000
v 0.075000 0.035000 0.051961
v -0.075000 0.035000 0.051962
v -0.075000 0.005000 0.060000
v -0.058660 0.005000 0.060000
v 0.075000 0.005000 0.060000
v 0.058660 0.005000 0.060000
v -0.075000 -0.025000 0.051962
v 0.075000 -0.025000 0.051961
v 0.075000 -0.046962 0.030000
v -0.075000 -0.046962 0.030000
v -0.075000 -0.055000 0.000000
v 0.075000 -0.055000 -0.000000
v -0.030000 -0.051961 0.060000
v -0.030000 -0.051961 0.280000
v -0.051962 -0.030000 0.060000
v -0.051962 -0.030000 0.280000
v -0.060000 0.000000 0.060000
v -0.060000 0.000000 0.280000
v -0.058660 0.005000 0.060000
v -0.051961 0.030000 0.060000
v -0.051961 0.030000 0.280000
v -0.030000 0.051962 0.060000
v -0.030000 0.051962 0.280000
v 0.000000 0.060000 0.280000
v 0.000000 0.060000 0.060000
v 0.030000 0.051961 0.280000
v 0.030000 0.051961 0.060000
v 0.058660 0.005000 0.060000
v 0.051962 0.030000 0.060000
v 0.051962 0.030000 0.280000
v 0.060000 -0.000000 0.060000
v 0.060000 0.000000 0.280000
v 0.051961 -0.030000 0.060000
v 0.051961 -0.030000 0.280000
v 0.030000 -0.051961 0.060000
v -0.000000 -0.060000 0.060000
v 0.030000 -0.051961 0.280000
v -0.000000 -0.060000 0.280000
vt 0.088235 1.000000
vt 0.176471 0.000000
vt 0.088235 0.000000
vt 0.176471 1.000000
vt 0.329297 1.000000
vt 0.352941 1.000000
vt 0.329297 1.000000
vt 0.264706 1.000000
vt 0.264706 1.000000
vt 0.176471 1.000000
vt 0.088235 1.000000
vt 0.023644 1.000000
vt 0.023641 1.000000
vt 0.000000 1.000000
vt 0.023644 0.000000
vt 0.000000 0.000000
vt 0.023644 0.000000
vt 0.088235 0.000000
vt 0.176471 0.000000
vt 0.264706 0.000000
vt 0.264706 0.000000
vt 0.329300 0.000000
vt 0.329300 0.000000
vt 0.352941 0.000000
vt 0.352941 0.891067
vt 0.352941 0.108933
vt 1.000000 0.300000
vt 0.352941 0.300000
vt 0.352941 0.500000
vt 1.000000 0.500000
vt 0.352941 0.153587
vt 0.352941 0.100000
vt 0.352941 0.108933
vt 0.352941 0.153593
vt 0.352941 0.300000
vt 0.352941 0.500000
vt 0.352941 0.700000
vt 0.352941 0.700000
vt 0.352941 0.846407
vt 0.352941 0.846413
vt 0.352941 0.891067
vt 0.352941 0.900000
vt 1.000000 0.153593
vt 1.000000 0.100000
vt 1.000000 0.153587
vt 1.000000 0.300000
vt 1.000000 0.500000
vt 1.000000 0.700000
vt 1.000000 0.700000
vt 1.000000 0.846407
vt 1.000000 0.846413
vt 1.000000 0.900000
vn 0.0000 -0.9659 -0.2588
vn 1.0000 0.0000 0.0000
vn -1.0000 0.0000 0.0000
vn -0.0000 -0.7071 -0.7071
vn 0.0000 -0.2588 -0.9659
vn -0.0000 0.2588 -0.9659
vn -0.0000 0.7071 -0.7071
vn -0.0000 0.9659 -0.2588
vn 0.0000 0.9659 0.2588
vn -0.0000 0.7071 0.7071
vn 0.0000 0.2588 0.9659
vn 0.0000 -0.2588 0.9659
vn 0.0000 -0.7071 0.7071
vn 0.0000 -0.9659 0.2588
vn -0.2588 -0.9659 0.0000
vn 0.0000 -0.0000 -1.0000
vn 0.0000 0.0000 1.0000
vn -0.7071 -0.7071 0.0000
vn -0.9659 -0.2588 -0.0000
vn -0.9659 0.2588 -0.0000
vn -0.9659 0.2589 -0.0000
vn -0.7071 0.7071 -0.0000
vn -0.2588 0.9659 -0.0000
vn 0.2588 0.9659 -0.0000
vn 0.7071 0.7071 0.0000
vn 0.9659 0.2589 0.0000
vn 0.9659 0.2588 -0.0000
vn 0.9659 -0.2588 0.0000
vn 0.7071 -0.7071 0.0000
vn 0.2588 -0.9659 0.0000
g Shape_IndexedFaceSet_Shape_IndexedFaceSet.150_None
usemtl None
s off
f 1/1/1 25/2/1 2/3/1
f 1/1/1 26/4/1 25/2/1
f 15/5/2 19/6/2 22/7/2
f 15/5/2 22/7/2 14/8/2
f 14/8/2 22/7/2 23/9/2
f 14/8/2 23/9/2 12/10/2
f 12/10/2 23/9/2 26/4/2
f 12/10/2 26/4/2 10/11/2
f 10/11/2 26/4/2 1/1/2
f 10/11/2 1/1/2 8/12/2
f 8/12/2 1/1/2 3/13/2
f 8/12/2 3/13/2 5/14/2
f 7/15/3 6/16/3 4/17/3
f 7/15/3 4/17/3 2/3/3
f 7/15/3 2/3/3 9/18/3
f 9/18/3 2/3/3 25/2/3
f 9/18/3 25/2/3 11/19/3
f 11/19/3 25/2/3 24/20/3
f 11/19/3 24/20/3 13/21/3
f 21/22/3 13/21/3 24/20/3
f 21/22/3 16/23/3 13/21/3
f 16/23/3 21/22/3 17/24/3
f 2/3/4 4/17/4 3/13/4
f 1/1/4 2/3/4 3/13/4
f 4/17/5 6/16/5 5/14/5
f 3/13/5 4/17/5 5/14/5
f 6/16/6 7/15/6 8/12/6
f 5/14/6 6/16/6 8/12/6
f 8/12/7 7/15/7 9/18/7
f 8/12/7 9/18/7 10/11/7
f 10/11/8 9/18/8 11/19/8
f 10/11/8 11/19/8 12/10/8
f 12/10/9 11/19/9 13/21/9
f 12/10/9 13/21/9 14/8/9
f 14/8/10 13/21/10 16/23/10
f 14/8/10 16/23/10 15/5/10
f 20/25/11 19/6/11 15/5/11
f 16/23/11 20/25/11 15/5/11
f 16/23/11 18/26/11 20/25/11
f 16/23/11 17/24/11 18/26/11
f 18/26/12 17/24/12 21/22/12
f 22/7/12 18/26/12 21/22/12
f 22/7/12 20/25/12 18/26/12
f 22/7/12 19/6/12 20/25/12
f 22/7/13 21/22/13 24/20/13
f 22/7/13 24/20/13 23/9/13
f 24/20/14 26/4/14 23/9/14
f 24/20/14 25/2/14 26/4/14
f 28/27/15 27/28/15 50/29/15
f 28/27/15 50/29/15 52/30/15
f 29/31/16 31/32/16 33/33/16
f 34/34/16 29/31/16 33/33/16
f 27/28/16 29/31/16 34/34/16
f 36/35/16 27/28/16 34/34/16
f 50/29/16 27/28/16 36/35/16
f 39/36/16 50/29/16 36/35/16
f 49/37/16 50/29/16 39/36/16
f 41/38/16 49/37/16 39/36/16
f 47/39/16 49/37/16 41/38/16
f 43/40/16 47/39/16 41/38/16
f 47/39/16 42/41/16 45/42/16
f 47/39/16 43/40/16 42/41/16
f 35/43/17 32/44/17 30/45/17
f 35/43/17 30/45/17 28/27/17
f 35/43/17 28/27/17 37/46/17
f 37/46/17 28/27/17 52/30/17
f 37/46/17 52/30/17 38/47/17
f 38/47/17 52/30/17 51/48/17
f 38/47/17 51/48/17 40/49/17
f 40/49/17 51/48/17 48/50/17
f 40/49/17 48/50/17 44/51/17
f 44/51/17 48/50/17 46/52/17
f 30/45/18 29/31/18 27/28/18
f 30/45/18 27/28/18 28/27/18
f 32/44/19 31/32/19 29/31/19
f 32/44/19 29/31/19 30/45/19
f 32/44/20 35/43/20 34/34/20
f 32/44/21 33/33/21 31/32/21
f 32/44/20 34/34/20 33/33/20
f 36/35/22 34/34/22 35/43/22
f 36/35/22 35/43/22 37/46/22
f 39/36/23 36/35/23 37/46/23
f 39/36/23 37/46/23 38/47/23
f 39/36/24 38/47/24 40/49/24
f 39/36/24 40/49/24 41/38/24
f 41/38/25 40/49/25 44/51/25
f 41/38/25 44/51/25 43/40/25
f 45/42/26 42/41/26 46/52/26
f 42/41/27 43/40/27 46/52/27
f 46/52/27 43/40/27 44/51/27
f 47/39/28 45/42/28 46/52/28
f 47/39/28 46/52/28 48/50/28
f 49/37/29 47/39/29 48/50/29
f 49/37/29 48/50/29 51/48/29
f 50/29/30 49/37/30 51/48/30
f 50/29/30 51/48/30 52/30/30
