# Blender v2.92.0 OBJ File: ''
# www.blender.org
mtllib j3.mtl
o Shape_IndexedFaceSet_Shape_IndexedFaceSet.151
v 0.065000 -0.005000 0.035000
v 0.065000 -0.005000 0.045000
v -0.065000 -0.005000 0.035000
v -0.065000 -0.005000 0.045000
v 0.065000 0.005000 0.035000
v 0.065000 0.005000 0.045000
v -0.065000 0.005000 0.035000
v -0.065000 0.005000 0.045000
v 0.045000 -0.005000 0.045000
v 0.045000 -0.005000 0.035000
v 0.045000 0.005000 0.035000
v 0.045000 0.005000 0.045000
v -0.030000 -0.051961 0.000000
v -0.030000 -0.051961 0.070000
v -0.030000 0.051962 0.070000
v -0.030000 0.051962 -0.000000
v 0.045000 0.036961 0.070000
v 0.045000 0.036961 -0.000000
v 0.030000 0.051961 -0.000000
v 0.030000 0.051961 0.070000
v 0.000000 0.060000 -0.000000
v 0.000000 0.060000 0.070000
v 0.000000 -0.060000 0.000000
v -0.000000 -0.060000 0.070000
v 0.030000 -0.051961 0.070000
v 0.045000 -0.036961 0.070000
v 0.030000 -0.051961 0.000000
v 0.045000 -0.036961 0.000000
v -0.045000 0.005000 0.045000
v -0.045000 -0.036961 0.000000
v -0.045000 0.005000 0.035000
v -0.045000 0.036961 -0.000000
v -0.045000 -0.005000 0.035000
v -0.045000 -0.036961 0.070000
v -0.045000 0.036961 0.070000
v -0.045000 -0.005000 0.045000
vt 1.000000 0.458333
vt 1.000000 0.458333
vt 1.000000 0.541667
vt 1.000000 0.541667
vt 0.846154 0.541667
vt 0.846154 0.458333
vt 0.153846 0.458333
vt 0.153846 0.541667
vt 0.000000 0.458333
vt 0.000000 0.541667
vt 0.846154 0.458333
vt 0.846154 0.541667
vt 0.000000 0.458333
vt 0.153846 0.541667
vt 0.153846 0.458333
vt 0.000000 0.541667
vt 0.846154 0.808008
vt 0.846154 0.808008
vt 0.846154 0.191992
vt 0.846154 0.191992
vt 0.730769 0.933008
vt 0.730769 0.066992
vt 0.500000 0.000000
vt 0.500000 1.000000
vt 0.269231 0.066983
vt 0.269231 0.933008
vt 0.153846 0.191992
vt 0.153846 0.808008
vt 0.269231 0.933008
vt 0.500000 1.000000
vt 0.730769 0.066992
vt 0.730769 0.933008
vt 0.500000 0.000000
vt 0.269231 0.066983
vt 0.153846 0.191992
vt 0.153846 0.808008
vn 1.0000 0.0000 0.0000
vn 0.0000 0.0000 -1.0000
vn -0.0000 0.0000 1.0000
vn 0.0000 -1.0000 0.0000
vn -1.0000 0.0000 0.0000
vn -0.0000 1.0000 -0.0000
vn -0.2588 -0.9659 0.0000
vn -0.7071 -0.7071 0.0000
vn -0.7071 0.7071 -0.0000
vn -0.2588 0.9659 -0.0000
vn 0.7071 0.7071 -0.0000
vn 0.2588 0.9659 -0.0000
vn 0.2588 -0.9659 0.0000
vn 0.7071 -0.7071 0.0000
g Shape_IndexedFaceSet_Shape_IndexedFaceSet.151_None
usemtl None
s off
f 5/1/1 6/2/1 2/3/1
f 5/1/1 2/3/1 1/4/1
f 10/5/2 11/6/2 1/4/2
f 11/6/2 5/1/2 1/4/2
f 31/7/2 33/8/2 7/9/2
f 33/8/2 3/10/2 7/9/2
f 2/3/3 12/11/3 9/12/3
f 2/3/3 6/2/3 12/11/3
f 8/13/3 36/14/3 29/15/3
f 8/13/3 4/16/3 36/14/3
f 10/5/4 1/4/4 2/3/4
f 10/5/4 2/3/4 9/12/4
f 3/10/4 33/8/4 36/14/4
f 3/10/4 36/14/4 4/16/4
f 8/13/5 7/9/5 3/10/5
f 8/13/5 3/10/5 4/16/5
f 5/1/6 11/6/6 12/11/6
f 5/1/6 12/11/6 6/2/6
f 31/7/6 7/9/6 8/13/6
f 31/7/6 8/13/6 29/15/6
f 28/17/1 9/12/1 26/18/1
f 9/12/1 12/11/1 26/18/1
f 28/17/1 10/5/1 9/12/1
f 17/19/1 11/6/1 18/20/1
f 11/6/1 28/17/1 18/20/1
f 11/6/1 10/5/1 28/17/1
f 17/19/1 12/11/1 11/6/1
f 17/19/1 26/18/1 12/11/1
f 27/21/2 19/22/2 28/17/2
f 19/22/2 18/20/2 28/17/2
f 21/23/2 19/22/2 27/21/2
f 23/24/2 21/23/2 27/21/2
f 16/25/2 21/23/2 23/24/2
f 13/26/2 16/25/2 23/24/2
f 16/25/2 13/26/2 32/27/2
f 13/26/2 30/28/2 32/27/2
f 14/29/7 13/26/7 23/24/7
f 14/29/7 23/24/7 24/30/7
f 26/18/3 20/31/3 25/32/3
f 26/18/3 17/19/3 20/31/3
f 25/32/3 20/31/3 22/33/3
f 25/32/3 22/33/3 24/30/3
f 24/30/3 22/33/3 15/34/3
f 24/30/3 15/34/3 14/29/3
f 35/35/3 14/29/3 15/34/3
f 35/35/3 34/36/3 14/29/3
f 34/36/8 30/28/8 13/26/8
f 34/36/8 13/26/8 14/29/8
f 35/35/9 15/34/9 16/25/9
f 35/35/9 16/25/9 32/27/9
f 15/34/10 22/33/10 21/23/10
f 15/34/10 21/23/10 16/25/10
f 19/22/11 20/31/11 17/19/11
f 19/22/11 17/19/11 18/20/11
f 20/31/12 19/22/12 21/23/12
f 20/31/12 21/23/12 22/33/12
f 23/24/13 27/21/13 25/32/13
f 23/24/13 25/32/13 24/30/13
f 26/18/14 25/32/14 27/21/14
f 26/18/14 27/21/14 28/17/14
f 32/27/5 29/15/5 35/35/5
f 29/15/5 36/14/5 35/35/5
f 32/27/5 31/7/5 29/15/5
f 34/36/5 33/8/5 30/28/5
f 33/8/5 32/27/5 30/28/5
f 33/8/5 31/7/5 32/27/5
f 34/36/5 36/14/5 33/8/5
f 34/36/5 35/35/5 36/14/5
o Shape_IndexedFaceSet.001_Shape_IndexedFaceSet.152
v -0.100000 0.020000 0.194641
v -0.100000 0.034641 0.180000
v -0.100000 0.040000 0.160000
v -0.100000 0.040000 0.080000
v -0.100000 0.034641 0.060000
v -0.100000 0.020000 0.045359
v -0.100000 0.000000 0.040000
v -0.100000 -0.020000 0.045359
v -0.100000 -0.034641 0.060000
v -0.100000 -0.040000 0.080000
v -0.100000 -0.040000 0.159999
v -0.100000 -0.034641 0.179999
v -0.100000 -0.020000 0.194641
v -0.100000 0.000000 0.200000
v -0.075000 0.030000 0.211961
v -0.075000 0.051961 0.190000
v -0.075000 0.060000 0.160000
v -0.075000 0.060000 0.080000
v -0.075000 0.051962 0.050000
v -0.075000 0.030000 0.028039
v -0.075000 0.000000 0.020000
v -0.075000 -0.030000 0.028038
v -0.075000 -0.051961 0.050000
v -0.075000 -0.060000 0.079999
v -0.075000 -0.060000 0.159999
v -0.075000 -0.051962 0.189999
v -0.075000 -0.030001 0.211961
v -0.075000 0.000000 0.220000
v -0.050000 0.000000 0.020000
v -0.050000 -0.030000 0.028038
v -0.050000 0.030000 0.028039
v -0.050000 -0.051961 0.050000
v -0.050000 0.051962 0.050000
v -0.050000 -0.060000 0.079999
v -0.050000 0.060000 0.080000
v -0.050000 -0.060000 0.159999
v -0.050000 0.060000 0.160000
v -0.050000 -0.051962 0.189999
v -0.050000 0.051961 0.190000
v -0.050000 -0.030001 0.211961
v -0.050000 0.030000 0.211961
v -0.050000 0.000000 0.220000
vt 0.126795 0.333333
vt 0.100000 0.499999
vt 0.126795 0.666667
vt 0.200000 0.788675
vt 0.200000 0.211325
vt 0.300000 0.833333
vt 0.300000 0.166667
vt 0.699995 0.833333
vt 0.700000 0.166667
vt 0.799995 0.788675
vt 0.800000 0.211325
vt 0.873205 0.666667
vt 0.873205 0.333333
vt 0.900000 0.500000
vt 1.000000 0.500000
vt 0.959805 0.250000
vt 0.850000 0.066992
vt 0.700000 0.000000
vt 0.300000 0.000000
vt 0.150000 0.066983
vt 0.040195 0.250000
vt 0.000000 0.499998
vt 0.040190 0.750000
vt 0.150000 0.933008
vt 0.299995 1.000000
vt 0.699995 1.000000
vt 0.849995 0.933017
vt 0.959805 0.750008
vt 1.000000 0.500000
vt 0.959805 0.250000
vt 0.850000 0.066992
vt 0.700000 0.000000
vt 0.300000 0.000000
vt 0.150000 0.066983
vt 0.040195 0.250000
vt 0.000000 0.499998
vt 0.040190 0.750000
vt 0.150000 0.933008
vt 0.299995 1.000000
vt 0.699995 1.000000
vt 0.849995 0.933017
vt 0.959805 0.750008
vn -1.0000 0.0000 0.0000
vn -0.6115 0.2048 0.7643
vn -0.6114 0.2048 0.7643
vn -0.6114 0.5595 0.5595
vn -0.6114 0.7643 0.2048
vn -0.6115 0.7643 0.2048
vn -0.6247 0.7809 0.0000
vn -0.6115 0.7643 -0.2048
vn -0.6115 0.5595 -0.5595
vn -0.6114 0.5595 -0.5595
vn -0.6115 0.2048 -0.7643
vn -0.6114 0.2048 -0.7643
vn -0.6115 -0.2048 -0.7643
vn -0.6115 -0.5595 -0.5595
vn -0.6114 -0.5595 -0.5595
vn -0.6114 -0.7643 -0.2048
vn -0.6115 -0.7643 -0.2048
vn -0.6247 -0.7809 0.0000
vn -0.6115 -0.7643 0.2048
vn -0.6115 -0.5595 0.5595
vn -0.6115 -0.2048 0.7643
vn -0.0000 0.2588 0.9659
vn 0.0000 0.7071 0.7071
vn 0.0000 0.9659 0.2588
vn -0.0000 1.0000 -0.0000
vn 0.0000 0.9659 -0.2588
vn 0.0000 0.7071 -0.7071
vn 0.0000 0.2588 -0.9659
vn 0.0000 -0.2588 -0.9659
vn 0.0000 -0.7071 -0.7071
vn 0.0000 -0.9659 -0.2588
vn -0.0000 -1.0000 0.0000
vn 0.0000 -0.9659 0.2588
vn 0.0000 -0.7071 0.7071
vn 0.0000 -0.2588 0.9659
vn 1.0000 0.0000 0.0000
g Shape_IndexedFaceSet.001_Shape_IndexedFaceSet.152_None
usemtl None
s off
f 42/37/15 43/38/15 44/39/15
f 42/37/15 44/39/15 45/40/15
f 42/37/15 45/40/15 41/41/15
f 41/41/15 45/40/15 46/42/15
f 41/41/15 46/42/15 40/43/15
f 40/43/15 46/42/15 47/44/15
f 40/43/15 47/44/15 39/45/15
f 39/45/15 47/44/15 48/46/15
f 39/45/15 48/46/15 38/47/15
f 38/47/15 48/46/15 49/48/15
f 38/47/15 49/48/15 37/49/15
f 37/49/15 49/48/15 50/50/15
f 50/50/16 64/51/16 51/52/16
f 50/50/17 51/52/17 37/49/17
f 37/49/18 51/52/18 52/53/18
f 37/49/18 52/53/18 38/47/18
f 38/47/19 52/53/19 53/54/19
f 38/47/20 53/54/20 39/45/20
f 39/45/21 53/54/21 54/55/21
f 39/45/21 54/55/21 40/43/21
f 40/43/22 54/55/22 55/56/22
f 40/43/22 55/56/22 41/41/22
f 41/41/23 55/56/23 56/57/23
f 41/41/24 56/57/24 42/37/24
f 43/38/25 42/37/25 57/58/25
f 42/37/26 56/57/26 57/58/26
f 44/39/27 43/38/27 57/58/27
f 58/59/27 44/39/27 57/58/27
f 45/40/28 44/39/28 58/59/28
f 45/40/29 58/59/29 59/60/29
f 46/42/30 45/40/30 59/60/30
f 46/42/31 59/60/31 60/61/31
f 47/44/32 46/42/32 60/61/32
f 47/44/32 60/61/32 61/62/32
f 48/46/33 47/44/33 61/62/33
f 48/46/33 61/62/33 62/63/33
f 49/48/34 48/46/34 62/63/34
f 49/48/34 62/63/34 63/64/34
f 49/48/35 63/64/35 64/51/35
f 49/48/35 64/51/35 50/50/35
f 64/51/36 78/65/36 77/66/36
f 64/51/36 77/66/36 51/52/36
f 51/52/37 77/66/37 75/67/37
f 51/52/37 75/67/37 52/53/37
f 52/53/38 75/67/38 73/68/38
f 52/53/38 73/68/38 53/54/38
f 53/54/39 73/68/39 71/69/39
f 53/54/39 71/69/39 54/55/39
f 54/55/40 71/69/40 69/70/40
f 54/55/40 69/70/40 55/56/40
f 55/56/41 69/70/41 67/71/41
f 55/56/41 67/71/41 56/57/41
f 57/58/42 56/57/42 67/71/42
f 65/72/42 57/58/42 67/71/42
f 58/59/43 57/58/43 65/72/43
f 66/73/43 58/59/43 65/72/43
f 59/60/44 58/59/44 66/73/44
f 68/74/44 59/60/44 66/73/44
f 60/61/45 59/60/45 68/74/45
f 60/61/45 68/74/45 70/75/45
f 61/62/46 60/61/46 70/75/46
f 61/62/46 70/75/46 72/76/46
f 62/63/47 72/76/47 74/77/47
f 62/63/47 61/62/47 72/76/47
f 62/63/48 74/77/48 76/78/48
f 62/63/48 76/78/48 63/64/48
f 63/64/49 76/78/49 78/65/49
f 63/64/49 78/65/49 64/51/49
f 66/73/50 65/72/50 67/71/50
f 66/73/50 67/71/50 68/74/50
f 68/74/50 67/71/50 69/70/50
f 68/74/50 69/70/50 70/75/50
f 70/75/50 69/70/50 71/69/50
f 70/75/50 71/69/50 72/76/50
f 72/76/50 71/69/50 73/68/50
f 72/76/50 73/68/50 74/77/50
f 74/77/50 73/68/50 75/67/50
f 74/77/50 75/67/50 76/78/50
f 76/78/50 75/67/50 77/66/50
f 76/78/50 77/66/50 78/65/50
o Shape_IndexedFaceSet.002_Shape_IndexedFaceSet.153
v 0.100000 0.020000 0.045359
v 0.100000 0.034641 0.060000
v 0.100000 0.040000 0.080000
v 0.100000 0.040000 0.160000
v 0.100000 0.034641 0.180000
v 0.100000 0.020000 0.194641
v 0.100000 0.000000 0.200000
v 0.100000 -0.020000 0.194641
v 0.100000 -0.034641 0.180000
v 0.100000 -0.040000 0.160000
v 0.100000 -0.040000 0.080000
v 0.100000 -0.034641 0.060000
v 0.100000 0.000000 0.040000
v 0.100000 -0.020000 0.045359
v 0.075000 0.030000 0.028038
v 0.075000 0.051961 0.050000
v 0.075000 0.060000 0.080000
v 0.075000 0.060000 0.160000
v 0.075000 0.051962 0.190000
v 0.075000 0.030000 0.211961
v 0.075000 0.000000 0.220000
v 0.075000 -0.030000 0.211962
v 0.075000 -0.051961 0.190000
v 0.075000 -0.060000 0.160001
v 0.075000 -0.060000 0.080001
v 0.075000 -0.051962 0.050001
v 0.075000 -0.030001 0.028039
v 0.075000 0.000000 0.020000
v 0.050000 0.000000 0.020000
v 0.050000 0.030000 0.028038
v 0.050000 -0.030001 0.028039
v 0.050000 0.051961 0.050000
v 0.050000 -0.051962 0.050001
v 0.050000 0.060000 0.080000
v 0.050000 -0.060000 0.080001
v 0.050000 0.060000 0.160000
v 0.050000 -0.060000 0.160001
v 0.050000 0.051962 0.190000
v 0.050000 -0.051961 0.190000
v 0.050000 0.030000 0.211961
v 0.050000 -0.030000 0.211962
v 0.050000 0.000000 0.220000
vt 0.873205 0.333333
vt 0.900000 0.499999
vt 0.873205 0.666667
vt 0.800000 0.788675
vt 0.800000 0.211325
vt 0.700000 0.833333
vt 0.700000 0.166667
vt 0.300000 0.833333
vt 0.300000 0.166667
vt 0.200000 0.788675
vt 0.200000 0.211325
vt 0.126795 0.666667
vt 0.126795 0.333333
vt 0.100000 0.500000
vt 0.000000 0.500000
vt 0.040190 0.250000
vt 0.150000 0.066992
vt 0.300000 0.000000
vt 0.700000 0.000000
vt 0.850000 0.066983
vt 0.959805 0.250000
vt 1.000000 0.499998
vt 0.959810 0.750000
vt 0.850000 0.933008
vt 0.700005 1.000000
vt 0.300005 1.000000
vt 0.150005 0.933017
vt 0.040195 0.750008
vt 0.000000 0.500000
vt 0.040190 0.250000
vt 0.150000 0.066992
vt 0.300000 0.000000
vt 0.700000 0.000000
vt 0.850000 0.066983
vt 0.959805 0.250000
vt 1.000000 0.499998
vt 0.959810 0.750000
vt 0.850000 0.933008
vt 0.700005 1.000000
vt 0.300005 1.000000
vt 0.150005 0.933017
vt 0.040195 0.750008
vn 1.0000 0.0000 0.0000
vn 0.6115 0.2048 -0.7643
vn 0.6114 0.5595 -0.5595
vn 0.6115 0.5595 -0.5595
vn 0.6115 0.7643 -0.2048
vn 0.6114 0.7643 -0.2048
vn 0.6247 0.7809 0.0000
vn 0.6115 0.7643 0.2048
vn 0.6114 0.5595 0.5595
vn 0.6115 0.5595 0.5595
vn 0.6115 0.2048 0.7643
vn 0.6114 0.2048 0.7643
vn 0.6115 -0.2048 0.7643
vn 0.6114 -0.5595 0.5595
vn 0.6115 -0.5595 0.5595
vn 0.6115 -0.7643 0.2048
vn 0.6114 -0.7643 0.2048
vn 0.6247 -0.7809 0.0000
vn 0.6115 -0.7643 -0.2048
vn 0.6115 -0.5595 -0.5595
vn 0.6114 -0.5595 -0.5595
vn 0.6115 -0.2048 -0.7643
vn -0.0000 0.2588 -0.9659
vn 0.0000 0.7071 -0.7071
vn -0.0000 0.9659 -0.2588
vn 0.0000 1.0000 -0.0000
vn -0.0000 0.9659 0.2588
vn 0.0000 0.7071 0.7071
vn 0.0000 0.2588 0.9659
vn 0.0000 -0.2588 0.9659
vn -0.0000 -0.7071 0.7071
vn 0.0000 -0.9659 0.2588
vn 0.0000 -1.0000 0.0000
vn 0.0000 -0.9659 -0.2588
vn 0.0000 -0.7071 -0.7071
vn -0.0000 -0.2588 -0.9659
vn -1.0000 0.0000 0.0000
g Shape_IndexedFaceSet.002_Shape_IndexedFaceSet.153_None
usemtl None
s off
f 84/79/51 85/80/51 86/81/51
f 84/79/51 86/81/51 87/82/51
f 84/79/51 87/82/51 83/83/51
f 83/83/51 87/82/51 88/84/51
f 83/83/51 88/84/51 82/85/51
f 82/85/51 88/84/51 89/86/51
f 82/85/51 89/86/51 81/87/51
f 81/87/51 89/86/51 90/88/51
f 81/87/51 90/88/51 80/89/51
f 80/89/51 90/88/51 92/90/51
f 80/89/51 92/90/51 79/91/51
f 79/91/51 92/90/51 91/92/51
f 106/93/52 93/94/52 79/91/52
f 91/92/52 106/93/52 79/91/52
f 93/94/53 94/95/53 80/89/53
f 93/94/54 80/89/54 79/91/54
f 94/95/55 95/96/55 81/87/55
f 94/95/56 81/87/56 80/89/56
f 95/96/57 96/97/57 82/85/57
f 95/96/57 82/85/57 81/87/57
f 96/97/58 97/98/58 83/83/58
f 96/97/58 83/83/58 82/85/58
f 97/98/59 98/99/59 84/79/59
f 97/98/60 84/79/60 83/83/60
f 99/100/61 85/80/61 84/79/61
f 99/100/62 84/79/62 98/99/62
f 100/101/63 86/81/63 85/80/63
f 100/101/63 85/80/63 99/100/63
f 101/102/64 87/82/64 86/81/64
f 101/102/65 86/81/65 100/101/65
f 102/103/66 88/84/66 87/82/66
f 102/103/67 87/82/67 101/102/67
f 103/104/68 89/86/68 88/84/68
f 103/104/68 88/84/68 102/103/68
f 104/105/69 90/88/69 89/86/69
f 104/105/69 89/86/69 103/104/69
f 105/106/70 92/90/70 90/88/70
f 105/106/71 90/88/71 104/105/71
f 91/92/72 92/90/72 106/93/72
f 92/90/72 105/106/72 106/93/72
f 107/107/73 108/108/73 93/94/73
f 106/93/73 107/107/73 93/94/73
f 108/108/74 110/109/74 94/95/74
f 108/108/74 94/95/74 93/94/74
f 95/96/75 110/109/75 112/110/75
f 95/96/75 94/95/75 110/109/75
f 112/110/76 114/111/76 96/97/76
f 112/110/76 96/97/76 95/96/76
f 97/98/77 114/111/77 116/112/77
f 97/98/77 96/97/77 114/111/77
f 118/113/78 98/99/78 97/98/78
f 118/113/78 97/98/78 116/112/78
f 120/114/79 99/100/79 98/99/79
f 120/114/79 98/99/79 118/113/79
f 119/115/80 100/101/80 99/100/80
f 119/115/80 99/100/80 120/114/80
f 117/116/81 101/102/81 100/101/81
f 117/116/81 100/101/81 119/115/81
f 115/117/82 102/103/82 101/102/82
f 115/117/82 101/102/82 117/116/82
f 113/118/83 103/104/83 102/103/83
f 113/118/83 102/103/83 115/117/83
f 111/119/84 104/105/84 103/104/84
f 111/119/84 103/104/84 113/118/84
f 109/120/85 105/106/85 104/105/85
f 109/120/85 104/105/85 111/119/85
f 109/120/86 107/107/86 106/93/86
f 105/106/86 109/120/86 106/93/86
f 108/108/87 107/107/87 109/120/87
f 108/108/87 109/120/87 110/109/87
f 110/109/87 109/120/87 111/119/87
f 110/109/87 111/119/87 112/110/87
f 112/110/87 111/119/87 113/118/87
f 112/110/87 113/118/87 114/111/87
f 114/111/87 113/118/87 115/117/87
f 114/111/87 115/117/87 116/112/87
f 116/112/87 115/117/87 117/116/87
f 116/112/87 117/116/87 118/113/87
f 118/113/87 117/116/87 119/115/87
f 118/113/87 119/115/87 120/114/87
