# Blender v2.92.0 OBJ File: ''
# www.blender.org
mtllib j5.mtl
o Shape_IndexedFaceSet_Shape_IndexedFaceSet.155
v -0.030000 -0.051961 0.070000
v -0.030000 -0.051961 0.000000
v -0.030000 0.051962 -0.000000
v -0.030000 0.051962 0.070000
v 0.045000 0.036961 -0.000000
v 0.045000 0.036961 0.070000
v 0.000000 0.060000 0.070000
v 0.000000 0.060000 -0.000000
v 0.030000 0.051961 0.070000
v 0.030000 0.051961 -0.000000
v -0.000000 -0.060000 0.070000
v 0.000000 -0.060000 0.000000
v 0.045000 -0.036961 0.000000
v 0.030000 -0.051961 0.000000
v 0.045000 -0.036961 0.070000
v 0.030000 -0.051961 0.070000
v -0.045000 -0.036961 0.000000
v -0.045000 0.036961 -0.000000
v -0.045000 -0.036961 0.070000
v -0.045000 0.036961 0.070000
v 0.045000 -0.005000 0.035000
v 0.065000 -0.005000 0.035000
v 0.045000 -0.005000 0.025000
v 0.065000 -0.005000 0.025000
v -0.045000 -0.005000 0.035000
v -0.045000 -0.005000 0.025000
v -0.065000 -0.005000 0.035000
v -0.065000 -0.005000 0.025000
v 0.065000 0.005000 0.035000
v 0.045000 0.005000 0.035000
v 0.065000 0.005000 0.025000
v 0.045000 0.005000 0.025000
v -0.065000 0.005000 0.025000
v -0.045000 0.005000 0.025000
v -0.065000 0.005000 0.035000
v -0.045000 0.005000 0.035000
vt 0.846154 0.808008
vt 0.846154 0.541667
vt 0.846154 0.808008
vt 0.846154 0.458333
vt 0.846154 0.541667
vt 0.846154 0.191992
vt 0.846154 0.458333
vt 0.846154 0.191992
vt 0.269231 0.066983
vt 0.269231 0.933008
vt 0.153846 0.191992
vt 0.153846 0.808008
vt 0.500000 1.000000
vt 0.500000 0.000000
vt 0.730769 0.933008
vt 0.730769 0.066992
vt 0.500000 1.000000
vt 0.269231 0.933008
vt 0.730769 0.066992
vt 0.730769 0.933008
vt 0.500000 0.000000
vt 0.269231 0.066983
vt 0.153846 0.191992
vt 0.153846 0.808008
vt 0.153846 0.458333
vt 0.153846 0.541667
vt 0.153846 0.458333
vt 0.153846 0.541667
vt 1.000000 0.541667
vt 1.000000 0.541667
vt 1.000000 0.458333
vt 1.000000 0.458333
vt 0.000000 0.458333
vt 0.000000 0.541667
vt 0.000000 0.458333
vt 0.000000 0.541667
vn 1.0000 -0.0000 0.0000
vn 0.0000 -0.0000 -1.0000
vn -0.2588 -0.9659 -0.0000
vn 0.0000 0.0000 1.0000
vn -0.7071 -0.7071 0.0000
vn -0.7071 0.7071 -0.0000
vn -0.2588 0.9659 -0.0000
vn 0.7071 0.7071 0.0000
vn 0.2588 0.9659 0.0000
vn 0.2588 -0.9659 0.0000
vn 0.7071 -0.7071 0.0000
vn -1.0000 0.0000 -0.0000
vn 0.0000 -1.0000 0.0000
vn -0.0000 1.0000 -0.0000
g Shape_IndexedFaceSet_Shape_IndexedFaceSet.155_None
usemtl None
s off
f 13/1/1 21/2/1 15/3/1
f 21/2/1 30/4/1 15/3/1
f 13/1/1 23/5/1 21/2/1
f 6/6/1 32/7/1 5/8/1
f 32/7/1 13/1/1 5/8/1
f 32/7/1 23/5/1 13/1/1
f 6/6/1 30/4/1 32/7/1
f 6/6/1 15/3/1 30/4/1
f 3/9/2 2/10/2 18/11/2
f 2/10/2 17/12/2 18/11/2
f 12/13/2 2/10/2 3/9/2
f 8/14/2 12/13/2 3/9/2
f 14/15/2 12/13/2 8/14/2
f 10/16/2 14/15/2 8/14/2
f 14/15/2 10/16/2 13/1/2
f 10/16/2 5/8/2 13/1/2
f 12/13/3 11/17/3 1/18/3
f 12/13/3 1/18/3 2/10/3
f 15/3/4 9/19/4 16/20/4
f 15/3/4 6/6/4 9/19/4
f 16/20/4 9/19/4 7/21/4
f 16/20/4 7/21/4 11/17/4
f 11/17/4 7/21/4 4/22/4
f 11/17/4 4/22/4 1/18/4
f 20/23/4 1/18/4 4/22/4
f 20/23/4 19/24/4 1/18/4
f 2/10/5 1/18/5 19/24/5
f 2/10/5 19/24/5 17/12/5
f 3/9/6 18/11/6 20/23/6
f 3/9/6 20/23/6 4/22/6
f 8/14/7 3/9/7 4/22/7
f 8/14/7 4/22/7 7/21/7
f 6/6/8 5/8/8 10/16/8
f 6/6/8 10/16/8 9/19/8
f 8/14/9 7/21/9 9/19/9
f 8/14/9 9/19/9 10/16/9
f 16/20/10 11/17/10 12/13/10
f 16/20/10 12/13/10 14/15/10
f 14/15/11 13/1/11 15/3/11
f 14/15/11 15/3/11 16/20/11
f 18/11/12 36/25/12 20/23/12
f 36/25/12 25/26/12 20/23/12
f 18/11/12 34/27/12 36/25/12
f 19/24/12 26/28/12 17/12/12
f 26/28/12 18/11/12 17/12/12
f 26/28/12 34/27/12 18/11/12
f 19/24/12 25/26/12 26/28/12
f 19/24/12 20/23/12 25/26/12
f 22/29/1 24/30/1 31/31/1
f 22/29/1 31/31/1 29/32/1
f 23/5/2 32/7/2 24/30/2
f 32/7/2 31/31/2 24/30/2
f 34/27/2 26/28/2 33/33/2
f 26/28/2 28/34/2 33/33/2
f 22/29/4 30/4/4 21/2/4
f 22/29/4 29/32/4 30/4/4
f 35/35/4 25/26/4 36/25/4
f 35/35/4 27/36/4 25/26/4
f 22/29/13 21/2/13 23/5/13
f 22/29/13 23/5/13 24/30/13
f 25/26/13 27/36/13 28/34/13
f 25/26/13 28/34/13 26/28/13
f 28/34/12 27/36/12 35/35/12
f 28/34/12 35/35/12 33/33/12
f 30/4/14 29/32/14 31/31/14
f 30/4/14 31/31/14 32/7/14
f 34/27/14 33/33/14 35/35/14
f 34/27/14 35/35/14 36/25/14
o Shape_IndexedFaceSet.001_Shape_IndexedFaceSet.156
v -0.080000 0.015000 0.265981
v -0.080000 0.025981 0.255000
v -0.080000 0.030000 0.240000
v -0.080000 0.030000 0.040000
v -0.080000 0.025981 0.025000
v -0.080000 0.015000 0.014019
v -0.080000 0.000000 0.010000
v -0.080000 -0.015000 0.014019
v -0.080000 -0.025981 0.025000
v -0.080000 -0.030000 0.040000
v -0.080000 -0.030000 0.240000
v -0.080000 -0.025981 0.255000
v -0.080000 0.000000 0.270000
v -0.080000 -0.015000 0.265980
v -0.060000 0.020000 0.274641
v -0.060000 0.034641 0.260000
v -0.060000 0.040000 0.240000
v -0.060000 0.040000 0.040000
v -0.060000 0.034641 0.020000
v -0.060000 0.020000 0.005359
v -0.060000 0.000000 -0.000000
v -0.060000 -0.020000 0.005359
v -0.060000 -0.034641 0.020000
v -0.060000 -0.040000 0.040000
v -0.060000 -0.040000 0.239999
v -0.060000 -0.034641 0.259999
v -0.060000 0.000000 0.280000
v -0.060000 -0.020000 0.274640
v -0.050000 0.000000 0.280000
v -0.050000 0.020000 0.274641
v -0.050000 -0.020000 0.274640
v -0.050000 0.034641 0.260000
v -0.050000 -0.034641 0.259999
v -0.050000 0.040000 0.240000
v -0.050000 -0.040000 0.239999
v -0.050000 0.040000 0.040000
v -0.050000 -0.040000 0.040000
v -0.050000 0.034641 0.020000
v -0.050000 -0.034641 0.020000
v -0.050000 0.020000 0.005359
v -0.050000 -0.020000 0.005359
v -0.050000 0.000000 -0.000000
vt 0.949929 0.687500
vt 0.964286 0.500000
vt 0.949932 0.312500
vt 0.910714 0.175238
vt 0.910714 0.824763
vt 0.857143 0.125000
vt 0.857143 0.875000
vt 0.142857 0.125000
vt 0.142857 0.875000
vt 0.089286 0.175238
vt 0.089286 0.824763
vt 0.050068 0.312500
vt 0.050068 0.687500
vt 0.035714 0.499998
vt 0.980861 0.250000
vt 1.000000 0.500000
vt 0.928571 0.066987
vt 0.857143 0.000000
vt 0.142857 0.000000
vt 0.071429 0.066987
vt 0.019139 0.250000
vt 0.000000 0.499998
vt 0.019139 0.750000
vt 0.071429 0.933012
vt 0.142857 1.000000
vt 0.857139 1.000000
vt 0.928568 0.933012
vt 0.980857 0.750000
vt 0.980861 0.250000
vt 1.000000 0.500000
vt 0.928571 0.066987
vt 0.857143 0.000000
vt 0.142857 0.000000
vt 0.071429 0.066987
vt 0.019139 0.250000
vt 0.000000 0.499998
vt 0.019139 0.750000
vt 0.071429 0.933012
vt 0.142857 1.000000
vt 0.857139 1.000000
vt 0.928568 0.933012
vt 0.980857 0.750000
vn -1.0000 0.0000 0.0000
vn -0.4349 0.2331 0.8698
vn -0.4349 0.6367 0.6367
vn -0.4349 0.8698 0.2330
vn -0.4349 0.8698 0.2331
vn -0.4472 0.8944 -0.0000
vn -0.4349 0.8698 -0.2330
vn -0.4349 0.8698 -0.2331
vn -0.4349 0.6367 -0.6367
vn -0.4349 0.2331 -0.8698
vn -0.4349 0.2330 -0.8698
vn -0.4349 -0.2330 -0.8698
vn -0.4349 -0.2331 -0.8698
vn -0.4349 -0.6367 -0.6367
vn -0.4349 -0.8698 -0.2330
vn -0.4349 -0.8698 -0.2331
vn -0.4472 -0.8944 0.0000
vn -0.4349 -0.8698 0.2330
vn -0.4349 -0.8698 0.2331
vn -0.4349 -0.6367 0.6368
vn -0.4349 -0.6367 0.6367
vn -0.4349 -0.2331 0.8698
vn 0.0000 0.2588 0.9659
vn 0.0000 0.7071 0.7071
vn 0.0000 0.9659 0.2588
vn 0.0000 1.0000 -0.0000
vn 0.0000 0.9659 -0.2588
vn 0.0000 0.7071 -0.7071
vn 0.0000 0.2588 -0.9659
vn 0.0000 -0.2588 -0.9659
vn 0.0000 -0.7071 -0.7071
vn 0.0000 -0.9659 -0.2588
vn 0.0000 -1.0000 0.0000
vn 0.0000 -0.9659 0.2588
vn 0.0000 -0.7071 0.7071
vn 0.0000 -0.2589 0.9659
vn 1.0000 0.0000 0.0000
g Shape_IndexedFaceSet.001_Shape_IndexedFaceSet.156_None
usemtl None
s off
f 50/37/15 49/38/15 37/39/15
f 50/37/15 37/39/15 38/40/15
f 50/37/15 38/40/15 48/41/15
f 48/41/15 38/40/15 39/42/15
f 48/41/15 39/42/15 47/43/15
f 47/43/15 39/42/15 40/44/15
f 47/43/15 40/44/15 46/45/15
f 46/45/15 40/44/15 41/46/15
f 46/45/15 41/46/15 45/47/15
f 45/47/15 41/46/15 42/48/15
f 45/47/15 42/48/15 44/49/15
f 44/49/15 42/48/15 43/50/15
f 51/51/16 37/39/16 49/38/16
f 51/51/16 49/38/16 63/52/16
f 52/53/17 38/40/17 37/39/17
f 52/53/17 37/39/17 51/51/17
f 53/54/18 39/42/18 38/40/18
f 53/54/19 38/40/19 52/53/19
f 54/55/20 40/44/20 39/42/20
f 54/55/20 39/42/20 53/54/20
f 55/56/21 41/46/21 40/44/21
f 55/56/22 40/44/22 54/55/22
f 56/57/23 42/48/23 41/46/23
f 56/57/23 41/46/23 55/56/23
f 56/57/24 57/58/24 42/48/24
f 57/58/25 43/50/25 42/48/25
f 44/49/26 43/50/26 57/58/26
f 58/59/27 44/49/27 57/58/27
f 45/47/28 44/49/28 58/59/28
f 45/47/28 58/59/28 59/60/28
f 46/45/29 45/47/29 59/60/29
f 46/45/30 59/60/30 60/61/30
f 47/43/31 46/45/31 60/61/31
f 47/43/31 60/61/31 61/62/31
f 48/41/32 47/43/32 61/62/32
f 48/41/33 61/62/33 62/63/33
f 50/37/34 48/41/34 62/63/34
f 50/37/35 62/63/35 64/64/35
f 63/52/36 49/38/36 50/37/36
f 63/52/36 50/37/36 64/64/36
f 66/65/37 51/51/37 63/52/37
f 66/65/37 63/52/37 65/66/37
f 68/67/38 52/53/38 51/51/38
f 68/67/38 51/51/38 66/65/38
f 70/68/39 53/54/39 52/53/39
f 70/68/39 52/53/39 68/67/39
f 72/69/40 54/55/40 53/54/40
f 72/69/40 53/54/40 70/68/40
f 74/70/41 55/56/41 54/55/41
f 74/70/41 54/55/41 72/69/41
f 76/71/42 56/57/42 55/56/42
f 76/71/42 55/56/42 74/70/42
f 56/57/43 76/71/43 78/72/43
f 57/58/43 56/57/43 78/72/43
f 58/59/44 57/58/44 78/72/44
f 77/73/44 58/59/44 78/72/44
f 59/60/45 58/59/45 77/73/45
f 75/74/45 59/60/45 77/73/45
f 73/75/46 60/61/46 59/60/46
f 73/75/46 59/60/46 75/74/46
f 61/62/47 60/61/47 73/75/47
f 61/62/47 73/75/47 71/76/47
f 62/63/48 61/62/48 71/76/48
f 62/63/48 71/76/48 69/77/48
f 67/78/49 64/64/49 62/63/49
f 67/78/49 62/63/49 69/77/49
f 65/66/50 63/52/50 64/64/50
f 65/66/50 64/64/50 67/78/50
f 66/65/51 65/66/51 67/78/51
f 66/65/51 67/78/51 68/67/51
f 68/67/51 67/78/51 69/77/51
f 68/67/51 69/77/51 70/68/51
f 70/68/51 69/77/51 71/76/51
f 70/68/51 71/76/51 72/69/51
f 72/69/51 71/76/51 73/75/51
f 72/69/51 73/75/51 74/70/51
f 74/70/51 73/75/51 75/74/51
f 74/70/51 75/74/51 76/71/51
f 76/71/51 75/74/51 77/73/51
f 76/71/51 77/73/51 78/72/51
o Shape_IndexedFaceSet.002_Shape_IndexedFaceSet.157
v 0.080000 0.015000 0.014019
v 0.080000 0.025981 0.025000
v 0.080000 0.030000 0.040000
v 0.080000 0.030000 0.240000
v 0.080000 0.025981 0.255000
v 0.080000 0.015000 0.265981
v 0.080000 0.000000 0.270000
v 0.080000 -0.015000 0.265981
v 0.080000 -0.025981 0.255000
v 0.080000 -0.030000 0.240000
v 0.080000 -0.030000 0.040000
v 0.080000 -0.025981 0.025000
v 0.080000 0.000000 0.010000
v 0.080000 -0.015000 0.014019
v 0.060000 0.020000 0.005359
v 0.060000 0.034641 0.020000
v 0.060000 0.040000 0.040000
v 0.060000 0.040000 0.240000
v 0.060000 0.034641 0.260000
v 0.060000 0.020000 0.274641
v 0.060000 0.000000 0.280000
v 0.060000 -0.020000 0.274641
v 0.060000 -0.034641 0.260000
v 0.060000 -0.040000 0.240000
v 0.060000 -0.040000 0.040000
v 0.060000 -0.034641 0.020000
v 0.060000 0.000000 0.000000
v 0.060000 -0.020000 0.005359
v 0.050000 0.000000 0.000000
v 0.050000 0.020000 0.005359
v 0.050000 -0.020000 0.005359
v 0.050000 0.034641 0.020000
v 0.050000 -0.034641 0.020000
v 0.050000 0.040000 0.040000
v 0.050000 -0.040000 0.040000
v 0.050000 0.040000 0.240000
v 0.050000 -0.040000 0.240000
v 0.050000 0.034641 0.260000
v 0.050000 -0.034641 0.260000
v 0.050000 0.020000 0.274641
v 0.050000 -0.020000 0.274641
v 0.050000 0.000000 0.280000
vt 0.050068 0.687500
vt 0.035714 0.500000
vt 0.050068 0.312500
vt 0.089286 0.175238
vt 0.089286 0.824763
vt 0.142857 0.125000
vt 0.142857 0.875000
vt 0.857143 0.125000
vt 0.857143 0.875000
vt 0.910714 0.175238
vt 0.910714 0.824763
vt 0.949932 0.312500
vt 0.949932 0.687500
vt 0.964286 0.499998
vt 0.000000 0.500000
vt 0.019139 0.250000
vt 0.071429 0.066987
vt 0.142857 0.000000
vt 0.857143 0.000000
vt 0.928571 0.066987
vt 0.980861 0.250000
vt 1.000000 0.499998
vt 0.980861 0.750000
vt 0.928571 0.933012
vt 0.857143 1.000000
vt 0.142857 1.000000
vt 0.071429 0.933012
vt 0.019139 0.750000
vt 0.000000 0.500000
vt 0.019139 0.250000
vt 0.071429 0.066987
vt 0.142857 0.000000
vt 0.857143 0.000000
vt 0.928571 0.066987
vt 0.980861 0.250000
vt 1.000000 0.499998
vt 0.980861 0.750000
vt 0.928571 0.933012
vt 0.857143 1.000000
vt 0.142857 1.000000
vt 0.071429 0.933012
vt 0.019139 0.750000
vn 1.0000 0.0000 0.0000
vn 0.4349 0.2331 -0.8698
vn 0.4349 0.2330 -0.8698
vn 0.4349 0.6367 -0.6367
vn 0.4349 0.8698 -0.2330
vn 0.4349 0.8698 -0.2331
vn 0.4472 0.8944 -0.0000
vn 0.4349 0.8698 0.2330
vn 0.4349 0.8698 0.2331
vn 0.4349 0.6367 0.6367
vn 0.4349 0.2331 0.8698
vn 0.4349 -0.2330 0.8698
vn 0.4349 -0.2331 0.8698
vn 0.4349 -0.6367 0.6367
vn 0.4349 -0.8698 0.2330
vn 0.4349 -0.8698 0.2331
vn 0.4472 -0.8944 0.0000
vn 0.4349 -0.8698 -0.2330
vn 0.4349 -0.8698 -0.2331
vn 0.4349 -0.6367 -0.6367
vn 0.4349 -0.2331 -0.8698
vn 0.4349 -0.2330 -0.8698
vn 0.0000 0.2588 -0.9659
vn 0.0000 0.7071 -0.7071
vn -0.0000 0.9659 -0.2588
vn -0.0000 1.0000 -0.0000
vn -0.0000 0.9659 0.2588
vn 0.0000 0.7071 0.7071
vn 0.0000 0.2588 0.9659
vn 0.0000 -0.2588 0.9659
vn 0.0000 -0.7071 0.7071
vn 0.0000 -0.9659 0.2588
vn 0.0000 -1.0000 0.0000
vn 0.0000 -0.9659 -0.2588
vn 0.0000 -0.7071 -0.7071
vn 0.0000 -0.2588 -0.9659
vn -1.0000 0.0000 0.0000
g Shape_IndexedFaceSet.002_Shape_IndexedFaceSet.157_None
usemtl None
s off
f 92/79/52 91/80/52 79/81/52
f 92/79/52 79/81/52 80/82/52
f 92/79/52 80/82/52 90/83/52
f 90/83/52 80/82/52 81/84/52
f 90/83/52 81/84/52 89/85/52
f 89/85/52 81/84/52 82/86/52
f 89/85/52 82/86/52 88/87/52
f 88/87/52 82/86/52 83/88/52
f 88/87/52 83/88/52 87/89/52
f 87/89/52 83/88/52 84/90/52
f 87/89/52 84/90/52 86/91/52
f 86/91/52 84/90/52 85/92/52
f 105/93/53 93/94/53 79/81/53
f 91/80/54 105/93/54 79/81/54
f 93/94/55 94/95/55 80/82/55
f 93/94/55 80/82/55 79/81/55
f 81/84/56 80/82/56 94/95/56
f 81/84/57 94/95/57 95/96/57
f 95/96/58 96/97/58 82/86/58
f 95/96/58 82/86/58 81/84/58
f 83/88/59 82/86/59 96/97/59
f 83/88/60 96/97/60 97/98/60
f 84/90/61 83/88/61 97/98/61
f 84/90/61 97/98/61 98/99/61
f 99/100/62 85/92/62 84/90/62
f 99/100/62 84/90/62 98/99/62
f 100/101/63 86/91/63 85/92/63
f 100/101/64 85/92/64 99/100/64
f 101/102/65 87/89/65 86/91/65
f 101/102/65 86/91/65 100/101/65
f 102/103/66 88/87/66 87/89/66
f 102/103/67 87/89/67 101/102/67
f 103/104/68 89/85/68 88/87/68
f 103/104/68 88/87/68 102/103/68
f 104/105/69 90/83/69 89/85/69
f 104/105/70 89/85/70 103/104/70
f 106/106/71 92/79/71 90/83/71
f 106/106/71 90/83/71 104/105/71
f 106/106/72 105/93/72 92/79/72
f 105/93/73 91/80/73 92/79/73
f 107/107/74 108/108/74 93/94/74
f 105/93/74 107/107/74 93/94/74
f 108/108/75 110/109/75 94/95/75
f 93/94/75 108/108/75 94/95/75
f 112/110/76 95/96/76 94/95/76
f 112/110/76 94/95/76 110/109/76
f 96/97/77 95/96/77 112/110/77
f 96/97/77 112/110/77 114/111/77
f 97/98/78 96/97/78 114/111/78
f 97/98/78 114/111/78 116/112/78
f 118/113/79 98/99/79 97/98/79
f 118/113/79 97/98/79 116/112/79
f 120/114/80 99/100/80 98/99/80
f 120/114/80 98/99/80 118/113/80
f 119/115/81 100/101/81 99/100/81
f 119/115/81 99/100/81 120/114/81
f 117/116/82 101/102/82 100/101/82
f 117/116/82 100/101/82 119/115/82
f 115/117/83 102/103/83 101/102/83
f 115/117/83 101/102/83 117/116/83
f 113/118/84 103/104/84 102/103/84
f 113/118/84 102/103/84 115/117/84
f 111/119/85 104/105/85 103/104/85
f 111/119/85 103/104/85 113/118/85
f 109/120/86 106/106/86 104/105/86
f 109/120/86 104/105/86 111/119/86
f 106/106/87 109/120/87 107/107/87
f 105/93/87 106/106/87 107/107/87
f 108/108/88 107/107/88 109/120/88
f 108/108/88 109/120/88 110/109/88
f 110/109/88 109/120/88 111/119/88
f 110/109/88 111/119/88 112/110/88
f 112/110/88 111/119/88 113/118/88
f 112/110/88 113/118/88 114/111/88
f 114/111/88 113/118/88 115/117/88
f 114/111/88 115/117/88 116/112/88
f 116/112/88 115/117/88 117/116/88
f 116/112/88 117/116/88 118/113/88
f 118/113/88 117/116/88 119/115/88
f 118/113/88 119/115/88 120/114/88
