# Blender v2.92.0 OBJ File: ''
# www.blender.org
mtllib LSY.mtl
o Shape_IndexedFaceSet_Shape_IndexedFaceSet.077
v -0.014343 -0.024999 0.076482
v -0.016755 -0.032499 0.073883
v -0.019006 -0.024999 0.071457
v -0.014343 -0.032499 0.076482
v -0.008406 -0.024999 0.079910
v -0.008406 -0.032499 0.079910
v -0.001722 -0.024999 0.081436
v -0.001722 -0.032499 0.081436
v 0.005115 -0.024999 0.080923
v 0.005115 -0.032499 0.080923
v 0.011497 -0.024999 0.078419
v 0.011497 -0.032499 0.078419
v 0.016857 -0.024999 0.074144
v 0.016857 -0.032499 0.074144
v 0.020719 -0.024999 0.068479
v 0.020719 -0.032499 0.068479
v 0.022548 -0.024999 0.063022
v 0.022548 -0.032499 0.063022
v -0.027467 -0.039499 0.000698
v -0.026742 -0.039499 0.006782
v 0.024785 -0.039499 0.006782
v -0.026538 -0.039499 -0.007008
v -0.023528 -0.039499 -0.014170
v -0.018857 -0.039499 -0.020372
v -0.012487 -0.039499 -0.025009
v -0.004978 -0.039499 -0.027750
v 0.003166 -0.039499 -0.028324
v 0.011389 -0.039499 -0.026565
v 0.019119 -0.039499 -0.022415
v 0.025783 -0.039499 -0.015885
v 0.033824 -0.032499 0.006782
v 0.034225 -0.032500 0.004324
v 0.034225 -0.032500 -0.004324
v -0.033830 -0.032499 0.006782
v -0.033830 -0.024999 0.006782
v -0.021981 -0.024999 0.065280
v -0.021981 -0.032499 0.065280
v 0.033824 -0.024999 0.006782
v 0.034225 -0.024999 0.004324
v 0.034225 -0.024999 -0.004324
v 0.032074 -0.024999 -0.012700
v 0.032074 -0.032500 -0.012700
v 0.027908 -0.024999 -0.020278
v 0.027908 -0.032500 -0.020278
v 0.021988 -0.024999 -0.026583
v 0.021988 -0.032499 -0.026583
v 0.014686 -0.024999 -0.031216
v 0.014686 -0.032499 -0.031216
v 0.006462 -0.024999 -0.033889
v 0.006462 -0.032499 -0.033889
v -0.002169 -0.024999 -0.034432
v -0.002169 -0.032499 -0.034432
v -0.010664 -0.024999 -0.032811
v -0.010664 -0.032499 -0.032811
v -0.018489 -0.024999 -0.029129
v -0.018489 -0.032499 -0.029129
v -0.025152 -0.024999 -0.023617
v -0.025152 -0.032499 -0.023617
v -0.030236 -0.024999 -0.016620
v -0.030236 -0.032499 -0.016620
v -0.033419 -0.024999 -0.008580
v -0.033419 -0.032499 -0.008580
v -0.034503 -0.024999 0.000000
v -0.034503 -0.032499 0.000000
v 0.022548 -0.032499 0.063022
v -0.009767 -0.039499 0.075020
v -0.016090 -0.039499 0.059104
v -0.012509 -0.038742 0.072966
v -0.002640 -0.039499 0.076446
v 0.003973 -0.039499 0.075466
v 0.009526 -0.039499 0.072471
v 0.013517 -0.039499 0.067939
v 0.015335 -0.039499 0.063388
vt 0.913876 0.225483
vt 0.934813 0.258237
vt 0.957244 0.293330
vt 0.957244 0.293330
vt 0.986830 0.379714
vt 0.986830 0.379714
vt 1.000000 0.476967
vt 1.000000 0.476967
vt 0.995573 0.576446
vt 0.995573 0.576446
vt 0.973962 0.669305
vt 0.973962 0.669305
vt 0.937066 0.747294
vt 0.937066 0.747294
vt 0.888174 0.803486
vt 0.888174 0.803486
vt 0.841078 0.830098
vt 0.841078 0.830098
vt 0.355698 0.862646
vt 0.355698 0.112928
vt 0.303193 0.102379
vt 0.236683 0.115890
vt 0.174875 0.159680
vt 0.121343 0.227652
vt 0.081324 0.320329
vt 0.057666 0.429596
vt 0.052719 0.548082
vt 0.067895 0.667737
vt 0.103715 0.780203
vt 0.160070 0.877168
vt 0.334484 1.000000
vt 0.355698 0.994165
vt 0.259847 1.000000
vt 0.860565 0.182196
vt 0.355698 0.009792
vt 0.355698 0.009792
vt 0.860565 0.182196
vt 0.355698 0.994165
vt 0.334484 1.000000
vt 0.259847 1.000000
vt 0.187558 0.968703
vt 0.187558 0.968703
vt 0.122156 0.908087
vt 0.122156 0.908087
vt 0.067741 0.821950
vt 0.067741 0.821950
vt 0.027756 0.715705
vt 0.027756 0.715705
vt 0.004686 0.596045
vt 0.004686 0.596045
vt 0.000000 0.470463
vt 0.000000 0.470463
vt 0.013990 0.346860
vt 0.013990 0.346860
vt 0.045768 0.233005
vt 0.045768 0.233005
vt 0.093339 0.136058
vt 0.093339 0.136058
vt 0.153727 0.062085
vt 0.153727 0.062085
vt 0.223116 0.015772
vt 0.223116 0.015772
vt 0.297166 0.000000
vt 0.297166 0.000000
vt 0.841078 0.830098
vt 0.926900 0.320008
vt 0.807267 0.267916
vt 0.944627 0.359905
vt 0.956935 0.463614
vt 0.948477 0.559831
vt 0.922626 0.640624
vt 0.883518 0.698698
vt 0.844235 0.725154
vn -0.7330 0.0000 0.6802
vn -0.5000 -0.0000 0.8660
vn -0.2226 -0.0000 0.9749
vn 0.0748 0.0000 0.9972
vn 0.3652 0.0000 0.9309
vn 0.6235 0.0000 0.7818
vn 0.8263 0.0000 0.5633
vn 0.9482 0.0000 0.3178
vn 0.0000 -1.0000 0.0000
vn 0.6092 -0.7867 0.0997
vn 0.5956 -0.8033 0.0000
vn -0.9801 0.0000 0.1985
vn -0.0000 1.0000 -0.0000
vn 0.2520 0.0000 0.9677
vn 1.0000 0.0000 0.0000
vn 0.9686 0.0000 -0.2487
vn 0.8763 0.0000 -0.4818
vn 0.8763 0.0000 -0.4817
vn 0.7290 0.0000 -0.6845
vn 0.5357 0.0000 -0.8444
vn 0.3091 0.0000 -0.9510
vn 0.0628 0.0000 -0.9980
vn -0.1874 -0.0000 -0.9823
vn -0.4258 0.0000 -0.9048
vn -0.6374 0.0000 -0.7705
vn -0.8090 0.0000 -0.5878
vn -0.9298 0.0000 -0.3681
vn -0.9921 0.0000 -0.1253
vn -0.9951 0.0000 0.0987
vn 0.9805 0.0000 0.1966
vn -0.3619 -0.9211 0.1437
vn -0.9010 0.0000 0.4339
vn -0.8513 -0.0882 0.5172
vn 0.6948 -0.7098 0.1160
vn 0.6077 -0.7847 0.1218
vn -0.6956 -0.7044 0.1416
vn -0.6930 -0.7071 0.1404
vn 0.6619 -0.7014 0.2644
vn 0.6839 -0.6927 0.2292
vn 0.5457 -0.6864 0.4807
vn 0.6161 -0.6663 0.4200
vn 0.3561 -0.6613 0.6602
vn 0.4775 -0.6432 0.5986
vn 0.1148 -0.6223 0.7743
vn 0.2873 -0.6176 0.7321
vn -0.1627 -0.5585 0.8134
vn 0.0607 -0.5847 0.8090
vn -0.6206 -0.3643 0.6943
vn -0.1877 -0.5377 0.8220
vn -0.7070 -0.7037 0.0702
vn -0.7002 -0.7090 0.0834
vn -0.6981 -0.7105 -0.0882
vn -0.7010 -0.7081 -0.0845
vn -0.6586 -0.7059 -0.2607
vn -0.6457 -0.7137 -0.2714
vn -0.5775 -0.7003 -0.4196
vn -0.5656 -0.7061 -0.4260
vn -0.4667 -0.6812 -0.5641
vn -0.4203 -0.7001 -0.5773
vn -0.3168 -0.6680 -0.6734
vn -0.2477 -0.6917 -0.6784
vn -0.1419 -0.6531 -0.7439
vn -0.0516 -0.6786 -0.7327
vn 0.0485 -0.6355 -0.7706
vn 0.1573 -0.6589 -0.7356
vn 0.2440 -0.6138 -0.7508
vn 0.3679 -0.6286 -0.6852
vn 0.4343 -0.5856 -0.6845
vn 0.5701 -0.5801 -0.5818
vn 0.6109 -0.5456 -0.5737
vn 0.7618 -0.4942 -0.4188
vn -0.6290 -0.5134 0.5837
vn 0.9870 0.0000 0.1610
vn 0.5969 -0.7708 0.2225
vn 0.7721 -0.6038 -0.1983
vn 0.6157 -0.7875 0.0271
vn -0.4222 -0.5358 0.7312
vn -0.6503 -0.7307 0.2079
vn -0.7142 -0.5493 0.4338
g Shape_IndexedFaceSet_Shape_IndexedFaceSet.077_None
usemtl None
s off
f 3/1/1 2/2/1 1/3/1
f 1/3/1 2/2/1 4/4/1
f 1/3/2 4/4/2 5/5/2
f 5/5/2 4/4/2 6/6/2
f 5/5/3 6/6/3 7/7/3
f 7/7/3 6/6/3 8/8/3
f 7/7/4 8/8/4 9/9/4
f 9/9/4 8/8/4 10/10/4
f 9/9/5 10/10/5 11/11/5
f 11/11/5 10/10/5 12/12/5
f 11/11/6 12/12/6 13/13/6
f 13/13/6 12/12/6 14/14/6
f 13/13/7 14/14/7 15/15/7
f 15/15/7 14/14/7 16/16/7
f 15/15/8 16/16/8 17/17/8
f 17/17/8 16/16/8 18/18/8
f 21/19/9 20/20/9 19/21/9
f 21/19/9 19/21/9 22/22/9
f 21/19/9 22/22/9 23/23/9
f 21/19/9 23/23/9 24/24/9
f 21/19/9 24/24/9 25/25/9
f 21/19/9 25/25/9 26/26/9
f 21/19/9 26/26/9 27/27/9
f 21/19/9 27/27/9 28/28/9
f 21/19/9 28/28/9 29/29/9
f 21/19/9 29/29/9 30/30/9
f 21/19/10 32/31/10 31/32/10
f 21/19/11 33/33/11 32/31/11
f 36/34/12 35/35/12 34/36/12
f 36/34/12 34/36/12 37/37/12
f 38/38/13 35/35/13 36/34/13
f 39/39/14 21/19/14 32/31/14
f 39/39/15 32/31/15 40/40/15
f 40/40/15 32/31/15 33/33/15
f 40/40/16 33/33/16 41/41/16
f 41/41/16 33/33/16 42/42/16
f 41/41/17 42/42/17 43/43/17
f 43/43/18 42/42/18 44/44/18
f 43/43/19 44/44/19 45/45/19
f 45/45/19 44/44/19 46/46/19
f 45/45/20 46/46/20 47/47/20
f 47/47/20 46/46/20 48/48/20
f 47/47/21 48/48/21 49/49/21
f 49/49/21 48/48/21 50/50/21
f 49/49/22 50/50/22 51/51/22
f 51/51/22 50/50/22 52/52/22
f 51/51/23 52/52/23 53/53/23
f 53/53/23 52/52/23 54/54/23
f 53/53/24 54/54/24 55/55/24
f 55/55/24 54/54/24 56/56/24
f 55/55/25 56/56/25 57/57/25
f 57/57/25 56/56/25 58/58/25
f 57/57/26 58/58/26 59/59/26
f 59/59/26 58/58/26 60/60/26
f 59/59/27 60/60/27 61/61/27
f 61/61/27 60/60/27 62/62/27
f 61/61/28 62/62/28 63/63/28
f 63/63/28 62/62/28 64/64/28
f 64/64/29 34/36/29 35/35/29
f 64/64/29 35/35/29 63/63/29
f 17/17/30 65/65/30 31/32/30
f 68/66/31 67/67/31 66/68/31
f 66/68/9 67/67/9 69/69/9
f 69/69/9 67/67/9 70/70/9
f 70/70/9 67/67/9 71/71/9
f 72/72/9 71/71/9 67/67/9
f 72/72/9 67/67/9 73/73/9
f 21/19/9 73/73/9 67/67/9
f 20/20/9 21/19/9 67/67/9
f 3/1/32 36/34/32 37/37/32
f 3/1/33 37/37/33 2/2/33
f 65/65/34 73/73/34 21/19/34
f 31/32/35 65/65/35 21/19/35
f 34/36/36 20/20/36 67/67/36
f 37/37/37 34/36/37 67/67/37
f 16/16/38 72/72/38 73/73/38
f 18/18/39 16/16/39 73/73/39
f 14/14/40 71/71/40 72/72/40
f 16/16/41 14/14/41 72/72/41
f 12/12/42 70/70/42 71/71/42
f 14/14/43 12/12/43 71/71/43
f 10/10/44 69/69/44 70/70/44
f 12/12/45 10/10/45 70/70/45
f 8/8/46 66/68/46 69/69/46
f 10/10/47 8/8/47 69/69/47
f 6/6/48 68/66/48 66/68/48
f 8/8/49 6/6/49 66/68/49
f 34/36/50 64/64/50 19/21/50
f 20/20/51 34/36/51 19/21/51
f 19/21/52 64/64/52 62/62/52
f 22/22/53 19/21/53 62/62/53
f 22/22/54 62/62/54 60/60/54
f 23/23/55 22/22/55 60/60/55
f 23/23/56 60/60/56 58/58/56
f 24/24/57 23/23/57 58/58/57
f 24/24/58 58/58/58 56/56/58
f 25/25/59 24/24/59 56/56/59
f 25/25/60 56/56/60 54/54/60
f 26/26/61 25/25/61 54/54/61
f 26/26/62 54/54/62 52/52/62
f 27/27/63 26/26/63 52/52/63
f 27/27/64 52/52/64 50/50/64
f 28/28/65 27/27/65 50/50/65
f 28/28/66 50/50/66 48/48/66
f 29/29/67 28/28/67 48/48/67
f 29/29/68 48/48/68 46/46/68
f 30/30/69 29/29/69 46/46/69
f 30/30/70 46/46/70 44/44/70
f 42/42/71 30/30/71 44/44/71
f 4/4/72 2/2/72 68/66/72
f 39/39/73 38/38/73 31/32/73
f 38/38/30 17/17/30 31/32/30
f 17/17/74 21/19/74 31/32/74
f 39/39/73 31/32/73 32/31/73
f 30/30/75 42/42/75 33/33/75
f 21/19/76 30/30/76 33/33/76
f 6/6/77 4/4/77 68/66/77
f 37/37/78 67/67/78 68/66/78
f 2/2/79 37/37/79 68/66/79
o Shape_IndexedFaceSet.001_Shape_IndexedFaceSet.078
v -0.000003 -0.024999 -0.037000
v 0.008530 -0.024999 -0.036003
v -0.000003 0.040001 -0.037000
vt 1.000000 0.000000
vt 0.000000 1.000000
vt 0.000000 0.000000
vn 0.1161 0.0000 -0.9932
g Shape_IndexedFaceSet.001_Shape_IndexedFaceSet.078_None
usemtl None
s off
f 76/74/80 75/75/80 74/76/80
o Shape_IndexedFaceSet.002_Shape_IndexedFaceSet.079
v -0.023786 0.040001 -0.028343
v -0.016609 0.040001 -0.033064
v -0.008536 0.040001 -0.036002
v -0.029682 0.040001 -0.022095
v -0.033977 0.040001 -0.014655
v -0.036441 0.040001 -0.006425
v -0.036941 0.040001 0.002152
v -0.035449 0.040001 0.010612
v -0.032046 0.040001 0.018500
v -0.026916 0.040001 0.025391
v -0.020335 0.040001 0.030913
v -0.012658 0.040001 0.034769
v -0.004298 0.040001 0.036750
v 0.004292 0.040001 0.036750
v 0.012652 0.040001 0.034769
v 0.020329 0.040001 0.030913
v 0.026910 0.040001 0.025391
v 0.032040 0.040001 0.018500
v 0.035443 0.040001 0.010612
v 0.036934 0.040001 0.002152
v 0.036435 0.040001 -0.006425
v 0.033971 0.040001 -0.014655
v 0.029675 0.040001 -0.022095
v 0.023780 0.040001 -0.028343
v 0.016602 0.040001 -0.033064
v 0.008530 0.040001 -0.036002
v -0.000003 0.040001 -0.037000
v 0.023780 -0.024999 -0.028344
v 0.016603 -0.024999 -0.033064
v 0.008530 -0.024999 -0.036003
v -0.016609 -0.024999 -0.033064
v -0.023786 -0.024999 -0.028343
v -0.008536 -0.024999 -0.036003
v -0.000003 -0.024999 -0.037000
v 0.029676 -0.024999 -0.022095
v 0.033971 -0.024999 -0.014655
v 0.036435 -0.024999 -0.006425
v 0.036935 -0.024999 0.002151
v 0.035443 -0.024999 0.010612
v 0.032040 -0.024999 0.018500
v 0.026910 -0.024999 0.025391
v 0.020329 -0.024999 0.030913
v 0.012652 -0.024999 0.034769
v -0.020335 -0.024999 0.030913
v -0.012657 -0.024999 0.034769
v -0.026916 -0.024999 0.025391
v -0.032046 -0.024999 0.018500
v -0.035449 -0.024999 0.010612
v -0.036940 -0.024999 0.002152
v -0.036441 -0.024999 -0.006425
v -0.033977 -0.024999 -0.014655
v -0.029682 -0.024999 -0.022095
vt 0.384495 0.013532
vt 0.275218 0.053369
vt 0.178069 0.117383
vt 0.098259 0.202102
vt 0.040121 0.302983
vt 0.006768 0.414576
vt 0.000000 0.530875
vt 0.020196 0.645586
vt 0.066260 0.752542
vt 0.135700 0.845980
vt 0.224782 0.920854
vt 0.328699 0.973139
vt 0.441862 1.000000
vt 0.558138 1.000000
vt 0.671301 0.973139
vt 0.775218 0.920854
vt 0.864300 0.845980
vt 0.933740 0.752542
vt 0.979804 0.645586
vt 0.999986 0.530875
vt 0.993232 0.414576
vt 0.959879 0.302983
vt 0.901727 0.202102
vt 0.821931 0.117383
vt 0.724769 0.053369
vt 0.615504 0.013532
vt 0.500000 0.000000
vt 0.615504 0.013519
vt 0.724782 0.053369
vt 0.821931 0.117369
vt 0.178069 0.117383
vt 0.275218 0.053369
vt 0.384496 0.013519
vt 0.500000 0.000000
vt 0.901741 0.202102
vt 0.959879 0.302983
vt 0.993232 0.414576
vt 1.000000 0.530861
vt 0.979804 0.645586
vt 0.933740 0.752542
vt 0.864300 0.845980
vt 0.775218 0.920854
vt 0.671301 0.973139
vt 0.328713 0.973139
vt 0.224782 0.920854
vt 0.135700 0.845980
vt 0.066260 0.752542
vt 0.020196 0.645586
vt 0.000014 0.530875
vt 0.006768 0.414576
vt 0.040121 0.302983
vt 0.098259 0.202102
vn 0.0000 1.0000 0.0000
vn -0.0000 -1.0000 0.0000
vn 0.1162 0.0000 -0.9932
vn 0.3421 0.0000 -0.9397
vn 0.3420 0.0000 -0.9397
vn 0.5495 0.0000 -0.8355
vn 0.7274 0.0000 -0.6863
vn 0.8660 0.0000 -0.5000
vn 0.9580 0.0000 -0.2868
vn 0.9983 0.0000 -0.0582
vn 0.9983 0.0000 -0.0581
vn 0.9848 0.0000 0.1737
vn 0.9848 0.0000 0.1736
vn 0.9182 0.0000 0.3961
vn 0.8021 0.0000 0.5971
vn 0.6428 0.0000 0.7661
vn 0.4488 0.0000 0.8936
vn -0.4488 -0.0000 0.8936
vn -0.6428 -0.0000 0.7661
vn -0.8021 -0.0000 0.5971
vn -0.9182 0.0000 0.3961
vn -0.9848 0.0000 0.1736
vn -0.9848 -0.0000 0.1737
vn -0.9983 -0.0000 -0.0581
vn -0.9983 0.0000 -0.0582
vn -0.9580 0.0000 -0.2868
vn -0.8660 0.0000 -0.5000
vn -0.8661 0.0000 -0.5000
vn -0.7273 -0.0000 -0.6863
vn -0.5496 0.0000 -0.8355
vn -0.3421 -0.0000 -0.9397
vn -0.3420 0.0000 -0.9397
vn -0.1160 0.0000 -0.9932
vn -0.1162 -0.0000 -0.9932
g Shape_IndexedFaceSet.002_Shape_IndexedFaceSet.079_None
usemtl None
s off
f 79/77/81 78/78/81 77/79/81
f 79/77/81 77/79/81 80/80/81
f 79/77/81 80/80/81 81/81/81
f 79/77/81 81/81/81 82/82/81
f 79/77/81 82/82/81 83/83/81
f 79/77/81 83/83/81 84/84/81
f 79/77/81 84/84/81 85/85/81
f 79/77/81 85/85/81 86/86/81
f 79/77/81 86/86/81 87/87/81
f 79/77/81 87/87/81 88/88/81
f 79/77/81 88/88/81 89/89/81
f 79/77/81 89/89/81 90/90/81
f 79/77/81 90/90/81 91/91/81
f 79/77/81 91/91/81 92/92/81
f 79/77/81 92/92/81 93/93/81
f 79/77/81 93/93/81 94/94/81
f 79/77/81 94/94/81 95/95/81
f 79/77/81 95/95/81 96/96/81
f 79/77/81 96/96/81 97/97/81
f 79/77/81 97/97/81 98/98/81
f 79/77/81 98/98/81 99/99/81
f 79/77/81 99/99/81 100/100/81
f 79/77/81 100/100/81 101/101/81
f 79/77/81 101/101/81 102/102/81
f 79/77/81 102/102/81 103/103/81
f 106/104/82 105/105/82 104/106/82
f 106/104/82 108/107/82 107/108/82
f 106/104/82 107/108/82 109/109/82
f 106/104/82 109/109/82 110/110/82
f 106/104/83 103/103/83 102/102/83
f 106/104/84 102/102/84 105/105/84
f 105/105/85 102/102/85 101/101/85
f 105/105/86 101/101/86 104/106/86
f 104/106/86 101/101/86 100/100/86
f 104/106/87 100/100/87 111/111/87
f 111/111/87 100/100/87 99/99/87
f 111/111/88 99/99/88 112/112/88
f 112/112/88 99/99/88 98/98/88
f 112/112/89 98/98/89 113/113/89
f 113/113/89 98/98/89 97/97/89
f 113/113/90 97/97/90 114/114/90
f 114/114/91 97/97/91 96/96/91
f 114/114/92 96/96/92 115/115/92
f 115/115/93 96/96/93 95/95/93
f 115/115/94 95/95/94 116/116/94
f 116/116/94 95/95/94 94/94/94
f 116/116/95 94/94/95 117/117/95
f 117/117/95 94/94/95 93/93/95
f 117/117/96 93/93/96 118/118/96
f 118/118/96 93/93/96 92/92/96
f 118/118/97 92/92/97 119/119/97
f 121/120/98 88/88/98 120/121/98
f 120/121/98 88/88/98 87/87/98
f 120/121/99 87/87/99 122/122/99
f 122/122/99 87/87/99 86/86/99
f 122/122/100 86/86/100 123/123/100
f 123/123/100 86/86/100 85/85/100
f 123/123/101 85/85/101 124/124/101
f 124/124/101 85/85/101 84/84/101
f 124/124/102 84/84/102 125/125/102
f 125/125/103 84/84/103 83/83/103
f 125/125/104 83/83/104 126/126/104
f 126/126/105 83/83/105 82/82/105
f 126/126/106 82/82/106 127/127/106
f 127/127/106 82/82/106 81/81/106
f 127/127/107 81/81/107 128/128/107
f 128/128/108 81/81/108 80/80/108
f 128/128/109 80/80/109 108/107/109
f 108/107/109 80/80/109 77/79/109
f 108/107/110 77/79/110 107/108/110
f 107/108/110 77/79/110 78/78/110
f 107/108/111 78/78/111 109/109/111
f 109/109/112 78/78/112 79/77/112
f 109/109/113 79/77/113 110/110/113
f 110/110/114 79/77/114 103/103/114
f 118/118/82 116/116/82 117/117/82
f 115/115/82 116/116/82 118/118/82
f 118/118/82 114/114/82 115/115/82
f 118/118/82 113/113/82 114/114/82
f 112/112/82 113/113/82 118/118/82
f 111/111/82 112/112/82 118/118/82
f 104/106/82 111/111/82 118/118/82
f 122/122/82 123/123/82 124/124/82
f 122/122/82 124/124/82 125/125/82
f 122/122/82 125/125/82 126/126/82
f 122/122/82 126/126/82 127/127/82
f 128/128/82 122/122/82 127/127/82
f 108/107/82 122/122/82 128/128/82
o Shape_IndexedFaceSet.003_Shape_IndexedFaceSet.080
v 0.036000 0.000000 -0.061400
v 0.034773 -0.009317 -0.061400
v 0.034773 -0.009317 0.000000
v 0.036000 0.000000 0.000000
v 0.031177 -0.018000 -0.061400
v 0.031177 -0.018000 0.000000
v 0.025456 -0.025456 -0.061400
v 0.025456 -0.025456 0.000000
v 0.018000 -0.031177 -0.061400
v 0.018000 -0.031177 0.000000
v 0.009317 -0.034773 -0.061400
v 0.009317 -0.034773 0.000000
v 0.000000 -0.036000 -0.061400
v 0.000000 -0.036000 0.000000
v -0.009317 -0.034773 -0.061400
v -0.009317 -0.034773 0.000000
v -0.018000 -0.031177 -0.061400
v -0.018000 -0.031177 0.000000
v -0.025456 -0.025456 -0.061400
v -0.025456 -0.025456 0.000000
v -0.031177 -0.018000 -0.061400
v -0.031177 -0.018000 0.000000
v -0.034773 -0.009318 -0.061400
v -0.034773 -0.009318 0.000000
v -0.036000 -0.000000 -0.061400
v -0.036000 -0.000000 0.000000
v -0.034773 0.009317 -0.061400
v -0.034773 0.009317 0.000000
v -0.031177 0.018000 -0.061400
v -0.031177 0.018000 0.000000
v -0.025456 0.025456 -0.061400
v -0.025456 0.025456 0.000000
v -0.018000 0.031177 -0.061400
v -0.018000 0.031177 0.000000
v -0.009318 0.034773 -0.061400
v -0.009318 0.034773 0.000000
v -0.000000 0.036000 -0.061400
v -0.000000 0.036000 0.000000
v 0.009317 0.034773 -0.061400
v 0.009317 0.034773 0.000000
v 0.018000 0.031177 -0.061400
v 0.018000 0.031177 0.000000
v 0.025456 0.025456 -0.061400
v 0.025456 0.025456 0.000000
v 0.031177 0.018000 -0.061400
v 0.031177 0.018000 0.000000
v 0.034773 0.009318 -0.061400
v 0.034773 0.009318 0.000000
vt 0.982962 0.370590
vt 0.982962 0.370590
vt 1.000000 0.500000
vt 1.000000 0.500000
vt 0.933012 0.250000
vt 0.933012 0.250000
vt 0.853553 0.146447
vt 0.853553 0.146447
vt 0.750000 0.066987
vt 0.750000 0.066987
vt 0.629410 0.017037
vt 0.629409 0.017037
vt 0.500000 0.000000
vt 0.500000 0.000000
vt 0.370591 0.017037
vt 0.370591 0.017037
vt 0.250000 0.066987
vt 0.250000 0.066987
vt 0.146447 0.146446
vt 0.146447 0.146446
vt 0.066987 0.250000
vt 0.066987 0.250000
vt 0.017037 0.370590
vt 0.017037 0.370590
vt 0.000000 0.500000
vt 0.000000 0.500000
vt 0.017037 0.629409
vt 0.017037 0.629409
vt 0.066987 0.750000
vt 0.066987 0.750000
vt 0.146446 0.853553
vt 0.146446 0.853553
vt 0.250000 0.933012
vt 0.250000 0.933012
vt 0.370590 0.982962
vt 0.370590 0.982962
vt 0.500000 1.000000
vt 0.500000 1.000000
vt 0.629409 0.982962
vt 0.629409 0.982962
vt 0.750000 0.933012
vt 0.750000 0.933012
vt 0.853553 0.853554
vt 0.853553 0.853554
vt 0.933012 0.750000
vt 0.933012 0.750000
vt 0.982962 0.629410
vt 0.982962 0.629410
vn 0.9914 -0.1305 0.0000
vn 0.9239 -0.3827 0.0000
vn 0.7934 -0.6088 0.0000
vn 0.6088 -0.7934 0.0000
vn 0.3827 -0.9239 0.0000
vn 0.1305 -0.9914 0.0000
vn -0.1305 -0.9914 0.0000
vn -0.3827 -0.9239 0.0000
vn -0.6088 -0.7934 0.0000
vn -0.7934 -0.6088 0.0000
vn -0.9239 -0.3827 0.0000
vn -0.9914 -0.1305 0.0000
vn -0.9914 0.1305 0.0000
vn -0.9239 0.3827 0.0000
vn -0.7934 0.6088 0.0000
vn -0.6088 0.7934 0.0000
vn -0.3827 0.9239 0.0000
vn -0.1305 0.9914 -0.0000
vn 0.1305 0.9914 0.0000
vn 0.3827 0.9239 0.0000
vn 0.6088 0.7934 0.0000
vn 0.7934 0.6088 0.0000
vn 0.9239 0.3827 0.0000
vn 0.9914 0.1305 0.0000
g Shape_IndexedFaceSet.003_Shape_IndexedFaceSet.080_None
usemtl None
s off
f 131/129/115 130/130/115 129/131/115
f 131/129/115 129/131/115 132/132/115
f 134/133/116 133/134/116 130/130/116
f 134/133/116 130/130/116 131/129/116
f 136/135/117 135/136/117 133/134/117
f 136/135/117 133/134/117 134/133/117
f 138/137/118 137/138/118 135/136/118
f 138/137/118 135/136/118 136/135/118
f 140/139/119 139/140/119 137/138/119
f 140/139/119 137/138/119 138/137/119
f 142/141/120 141/142/120 139/140/120
f 142/141/120 139/140/120 140/139/120
f 144/143/121 143/144/121 141/142/121
f 144/143/121 141/142/121 142/141/121
f 146/145/122 145/146/122 143/144/122
f 146/145/122 143/144/122 144/143/122
f 148/147/123 147/148/123 145/146/123
f 148/147/123 145/146/123 146/145/123
f 150/149/124 149/150/124 147/148/124
f 150/149/124 147/148/124 148/147/124
f 152/151/125 151/152/125 149/150/125
f 152/151/125 149/150/125 150/149/125
f 154/153/126 153/154/126 151/152/126
f 154/153/126 151/152/126 152/151/126
f 156/155/127 155/156/127 153/154/127
f 156/155/127 153/154/127 154/153/127
f 158/157/128 157/158/128 155/156/128
f 158/157/128 155/156/128 156/155/128
f 160/159/129 159/160/129 157/158/129
f 160/159/129 157/158/129 158/157/129
f 162/161/130 161/162/130 159/160/130
f 162/161/130 159/160/130 160/159/130
f 164/163/131 163/164/131 161/162/131
f 164/163/131 161/162/131 162/161/131
f 166/165/132 165/166/132 163/164/132
f 166/165/132 163/164/132 164/163/132
f 168/167/133 167/168/133 165/166/133
f 168/167/133 165/166/133 166/165/133
f 170/169/134 169/170/134 167/168/134
f 170/169/134 167/168/134 168/167/134
f 172/171/135 171/172/135 169/170/135
f 172/171/135 169/170/135 170/169/135
f 174/173/136 173/174/136 171/172/136
f 174/173/136 171/172/136 172/171/136
f 176/175/137 175/176/137 173/174/137
f 176/175/137 173/174/137 174/173/137
f 132/132/138 129/131/138 175/176/138
f 132/132/138 175/176/138 176/175/138
o Shape_IndexedFaceSet.004_Shape_IndexedFaceSet.081
v 0.033824 -0.024999 0.006782
v 0.022548 -0.024999 0.063022
v -0.022554 -0.024999 0.063022
vt 0.000000 1.000000
vt 0.799993 1.000000
vt 1.000000 0.000000
vn -0.0000 1.0000 -0.0000
g Shape_IndexedFaceSet.004_Shape_IndexedFaceSet.081_None
usemtl None
s off
f 179/177/139 178/178/139 177/179/139
o Shape_IndexedFaceSet.005_Shape_IndexedFaceSet.082
v -0.042648 0.052111 0.085251
v -0.033756 0.052111 0.094620
v -0.033757 -0.024110 0.094619
v -0.042831 -0.024110 0.085147
vt 0.000000 0.999894
vt 1.000000 1.000000
vt 1.000000 0.010958
vt 0.000000 0.000000
vn -0.7253 0.0000 0.6884
vn -0.7221 0.0008 0.6918
g Shape_IndexedFaceSet.005_Shape_IndexedFaceSet.082_None
usemtl None
s off
f 182/180/140 181/181/140 180/182/140
f 182/180/141 180/182/141 183/183/141
o Shape_IndexedFaceSet.006_Shape_IndexedFaceSet.083
v -0.033757 -0.024110 0.094619
v -0.033756 0.052111 0.094620
v 0.030022 0.052111 0.094620
v 0.030053 -0.024110 0.094620
v -0.044748 0.054259 0.033120
v -0.044748 -0.026257 0.033119
v 0.041968 -0.026257 0.033120
v 0.041968 0.054259 0.033120
v 0.040230 -0.024110 0.085203
v 0.040230 0.052111 0.085203
v -0.042648 0.052111 0.085251
v -0.042831 -0.024110 0.085147
v -0.042648 0.052111 0.085251
v -0.044748 0.054259 0.033120
v 0.041968 0.054259 0.033120
v 0.040230 0.052111 0.085203
v 0.040182 -0.024110 0.085148
v 0.041968 -0.026257 0.033120
v -0.044748 -0.026257 0.033119
v -0.042831 -0.024110 0.085147
v -0.033699 0.052111 0.094620
v 0.030052 0.052111 0.094620
v 0.030022 -0.024110 0.094620
v -0.033757 -0.024110 0.094619
vt 0.862236 0.973322
vt 0.126757 0.973322
vt 0.126746 0.026666
vt 0.862592 0.026666
vt 1.000000 0.000000
vt 0.000000 0.000000
vt 0.000000 1.000000
vt 1.000000 1.000000
vt 0.979958 0.973322
vt 0.979958 0.026666
vt 0.022111 0.026666
vt 0.024222 0.973322
vt 1.000000 1.000000
vt 0.000000 1.000000
vt 0.024222 0.973322
vt 0.979958 0.973322
vt 0.000000 0.000000
vt 1.000000 0.000000
vt 0.979409 0.026666
vt 0.022111 0.026666
vt 0.127414 0.973322
vt 0.862592 0.973322
vt 0.862236 0.026666
vt 0.126746 0.026666
vn 0.0000 -0.0000 1.0000
vn 0.0000 0.0000 -1.0000
vn 0.9994 0.0000 0.0334
vn -0.9992 0.0023 0.0404
vn -0.9993 -0.0000 0.0368
vn -0.0000 0.9992 0.0412
vn -0.0000 -0.9991 0.0412
vn 0.6791 0.0003 0.7340
vn 0.6780 0.0000 0.7350
vn -0.0000 1.0000 0.0000
vn 0.0000 -1.0000 0.0000
g Shape_IndexedFaceSet.006_Shape_IndexedFaceSet.083_None
usemtl None
s off
f 186/184/142 185/185/142 184/186/142
f 186/184/142 184/186/142 187/187/142
f 190/188/143 189/189/143 188/190/143
f 190/188/143 188/190/143 191/191/143
f 193/192/144 192/193/144 190/188/144
f 193/192/144 190/188/144 191/191/144
f 195/194/145 194/195/145 188/190/145
f 195/194/146 188/190/146 189/189/146
f 198/196/147 197/197/147 196/198/147
f 198/196/147 196/198/147 199/199/147
f 202/200/148 201/201/148 200/202/148
f 202/200/148 200/202/148 203/203/148
f 186/184/149 187/187/149 192/193/149
f 186/184/150 192/193/150 193/192/150
f 199/199/151 196/198/151 204/204/151
f 199/199/151 204/204/151 205/205/151
f 203/203/152 200/202/152 206/206/152
f 203/203/152 206/206/152 207/207/152
